<svg width="99" height="99" viewBox="0 0 99 99" fill="none" xmlns="http://www.w3.org/2000/svg">
<path d="M37.125 28.875L53.625 28.875" stroke="#F36B21" stroke-width="3" stroke-linecap="round"/>
<path d="M37.125 61.875L49.5 61.875" stroke="#F36B21" stroke-width="3" stroke-linecap="round"/>
<path d="M37.125 45.375L61.875 45.375" stroke="#F36B21" stroke-width="3" stroke-linecap="round"/>
<path d="M78.375 45.375V18.375C78.375 15.5466 78.375 14.1324 77.4963 13.2537C76.6176 12.375 75.2034 12.375 72.375 12.375H26.625C23.7966 12.375 22.3824 12.375 21.5037 13.2537C20.625 14.1324 20.625 15.5466 20.625 18.375V80.625C20.625 83.4534 20.625 84.8676 21.5037 85.7463C22.3824 86.625 23.7966 86.625 26.625 86.625H49.5" stroke="#F36B21" stroke-width="3" stroke-linecap="round"/>
<circle cx="72.1875" cy="72.1875" r="10.3125" stroke="#F36B21" stroke-width="3" stroke-linecap="round"/>
<path d="M86.625 86.625L80.4375 80.4375" stroke="#222222" stroke-linecap="round"/>
</svg>
