<svg width="234" height="42" viewBox="0 0 234 42" fill="none" xmlns="http://www.w3.org/2000/svg">
<path d="M180.37 8.69495H170.229V12.5077H180.37V8.69495Z" fill="white"/>
<path d="M180.337 32.0267C179.944 37.2573 175.562 41.3969 170.228 41.3969C164.895 41.3969 160.517 37.2573 160.124 32.0267H163.947C164.329 35.1526 167 37.5842 170.228 37.5842C173.457 37.5842 176.127 35.1526 176.509 32.0267H180.337Z" fill="white"/>
<path d="M180.696 31.7328V31.8053H180.692C180.696 31.7799 180.696 31.7582 180.696 31.7328Z" fill="white"/>
<path d="M180.347 18.1863C180.013 12.8933 175.605 8.69495 170.228 8.69495C164.85 8.69495 160.446 12.8933 160.116 18.1863C160.097 18.3994 160.09 18.6161 160.09 18.8365C160.09 21.1763 160.887 23.3287 162.224 25.0478C162.279 25.1212 162.338 25.1947 162.397 25.2682C162.455 25.3416 162.514 25.4114 162.58 25.4812C163.175 26.1681 163.858 26.7705 164.619 27.2774C164.696 27.3288 164.773 27.3802 164.854 27.428C164.931 27.4794 165.008 27.5271 165.089 27.5712C166.595 28.4638 168.354 28.9744 170.228 28.9744C172.101 28.9744 173.864 28.4638 175.37 27.5712C175.447 27.5271 175.524 27.4794 175.602 27.428C175.682 27.3839 175.759 27.3325 175.837 27.2774C176.597 26.7741 177.284 26.1681 177.879 25.4812C177.945 25.4114 178.004 25.3416 178.063 25.2682C178.125 25.1947 178.184 25.1212 178.235 25.0478C179.576 23.3287 180.369 21.1763 180.369 18.8365C180.369 18.6161 180.362 18.3994 180.347 18.1863ZM175.37 22.5206C175.315 22.5978 175.26 22.6712 175.201 22.7447C175.146 22.8182 175.087 22.888 175.025 22.9577C174.345 23.7511 173.467 24.3756 172.472 24.7539C172.325 24.809 172.178 24.8604 172.028 24.9045C171.84 24.9596 171.646 25.0074 171.451 25.0478C171.054 25.1249 170.646 25.1653 170.228 25.1653C169.809 25.1653 169.401 25.1249 169.005 25.0478C168.81 25.0074 168.615 24.9596 168.428 24.9045C168.277 24.8604 168.13 24.809 167.983 24.7539C166.988 24.3756 166.11 23.7511 165.431 22.9577C165.368 22.888 165.309 22.8182 165.254 22.7447C165.196 22.6712 165.14 22.5978 165.085 22.5206C164.34 21.4848 163.899 20.2102 163.899 18.8365C163.899 18.6161 163.91 18.3994 163.932 18.1863C164.259 15.0017 166.959 12.5077 170.228 12.5077C173.497 12.5077 176.197 15.0017 176.523 18.1863C176.546 18.3994 176.557 18.6161 176.557 18.8365C176.557 20.2102 176.116 21.4848 175.37 22.5206Z" fill="#F16A21"/>
<path d="M46.9543 15.2847L46.4033 16.0119C46.5686 15.7548 46.7523 15.5124 46.9543 15.2847Z" fill="white"/>
<path d="M56.8606 24.6584C56.2178 24.012 55.2224 23.9128 54.4364 24.3719C53.5548 24.8899 52.5263 25.1874 51.4281 25.1874C48.1333 25.1874 45.4666 22.517 45.4666 19.2259C45.4666 18.0468 45.8082 16.9485 46.3995 16.0229L41.8853 22.0175C43.09 26.1497 46.9064 29.1691 51.4317 29.1691C53.294 29.1691 55.0388 28.6585 56.5264 27.7659C57.621 27.1121 57.7973 25.5951 56.8974 24.6915L56.8643 24.6584H56.8606ZM43.1378 13.7309L43.8467 12.7905C43.5896 13.0917 43.3545 13.4039 43.1378 13.7309Z" fill="#F16A21"/>
<path d="M56.8928 13.7601L56.8597 13.7932C56.2169 14.436 55.2215 14.5388 54.4354 14.0797C53.5539 13.5618 52.5254 13.2679 51.4271 13.2679C49.6457 13.2679 48.0478 14.0466 46.9532 15.2882C46.7512 15.5196 46.5676 15.762 46.3986 16.0228H46.3949L41.8806 22.021L38.685 26.2598C36.8852 28.0597 34.4021 29.1726 31.6546 29.1726H31.6216C31.5848 29.1726 31.5481 29.1726 31.5077 29.1726C26.0825 29.0955 21.7114 24.673 21.7114 19.2294C21.7114 13.7859 26.1633 9.28625 31.6546 9.28625C33.5169 9.28625 35.2616 9.79682 36.7493 10.6894C37.8439 11.3432 38.0202 12.8602 37.1202 13.7638L37.0872 13.7969C36.4444 14.4397 35.4526 14.5425 34.6629 14.0834C33.7814 13.5655 32.7529 13.2716 31.6546 13.2716C28.3598 13.2716 25.6931 15.9383 25.6931 19.2294C25.6931 22.5206 28.3598 25.191 31.6546 25.191C33.2194 25.191 34.6482 24.5849 35.7098 23.5931L35.7906 23.4829L43.1332 13.7344L43.8421 12.7941C45.664 10.649 48.3858 9.28625 51.4198 9.28625H51.4675C53.3115 9.29727 55.0378 9.80784 56.5144 10.6894C57.609 11.3432 57.7853 12.8639 56.8817 13.7638L56.8928 13.7601Z" fill="white"/>
<path d="M9.93952 9.28625C4.44817 9.28625 0 13.7381 0 19.2294C0 24.7208 4.44817 29.169 9.93952 29.169C15.4309 29.169 19.879 24.7171 19.879 19.2294C19.879 13.7418 15.4309 9.28993 9.93952 9.28993V9.28625ZM9.93952 25.1873C6.64838 25.1873 3.98168 22.5206 3.98168 19.2294C3.98168 15.9383 6.64838 13.2716 9.93952 13.2716C13.2307 13.2716 15.8974 15.9383 15.8974 19.2294C15.8974 22.5206 13.2307 25.1873 9.93952 25.1873Z" fill="white"/>
<path d="M69.0117 9.28631C63.4028 9.31937 58.8958 13.9916 59.1382 19.6593C59.355 24.7539 63.4762 28.9082 68.5709 29.1543C70.9951 29.2719 73.2468 28.5189 75.0283 27.1819C75.0283 27.7255 75.2486 28.2177 75.6013 28.5703C75.9576 28.9266 76.4498 29.147 76.9934 29.147H77.0448C78.1284 29.147 79.0099 28.2691 79.0099 27.1819V19.3874C79.0099 13.8484 74.5507 9.25325 69.0117 9.28631ZM69.0704 25.1873C65.7793 25.1873 63.1126 22.5206 63.1126 19.2295C63.1126 15.9384 65.7793 13.2717 69.0704 13.2717C72.3616 13.2717 75.0283 15.9384 75.0283 19.2295C75.0283 22.5206 72.3616 25.1873 69.0704 25.1873Z" fill="white"/>
<path d="M106.048 16.3056V27.167C106.048 28.2653 105.159 29.1542 104.061 29.1542C102.962 29.1542 102.073 28.2653 102.073 27.167V16.2615C102.073 14.6269 100.733 13.2348 99.0981 13.2679C97.5113 13.2973 96.233 14.5939 96.233 16.188V27.1707C96.233 28.269 95.3441 29.1579 94.2459 29.1579C93.1476 29.1579 92.2587 28.269 92.2587 27.1707V16.2651C92.2587 14.6269 90.918 13.2385 89.2835 13.2715C87.6967 13.3009 86.4221 14.5975 86.4221 16.1917V27.1744C86.4221 28.2726 85.5332 29.1615 84.4349 29.1615C83.3366 29.1615 82.4478 28.2726 82.4478 27.1744V16.3129C82.4478 12.4781 85.5846 9.25312 89.4194 9.2972C91.3074 9.31924 93.0154 10.1016 94.2459 11.3468C95.48 10.0979 97.1881 9.31557 99.0797 9.2972C102.911 9.25679 106.048 12.4818 106.048 16.3129V16.3056Z" fill="white"/>
<path d="M117.471 17.3599H117.456C113.775 16.482 113.375 15.9053 113.375 14.8842V14.8328C113.375 13.8043 114.429 13.088 115.943 13.088C116.861 13.088 117.779 13.3011 118.719 13.7308C118.881 13.8043 119.425 14.1349 119.998 14.4911C120.927 15.0678 122.143 14.796 122.738 13.8814C123.351 12.9411 123.068 11.6775 122.117 11.0861C121.551 10.7335 121.022 10.4103 120.861 10.3332C119.381 9.61689 117.775 9.26794 115.994 9.26794C111.979 9.26794 109.177 11.6775 109.177 15.1303V15.1817C109.177 18.8842 111.579 20.1882 115.733 21.191C119.017 21.9476 119.572 22.5427 119.572 23.5822V23.6336C119.572 24.7576 118.433 25.5106 116.736 25.5106C116.119 25.5106 114.962 25.2388 113.926 24.7759C113.103 24.4086 112.28 23.9532 111.597 23.5528C110.672 23.0055 109.481 23.2773 108.897 24.1809L108.883 24.2029C108.277 25.1359 108.548 26.3811 109.485 26.9762C110.183 27.4206 110.885 27.8614 111.116 27.9826C112.831 28.8715 114.719 29.338 116.662 29.338C120.982 29.338 123.77 26.9762 123.77 23.3177V23.2663C123.77 20.1662 121.944 18.4581 117.471 17.3672V17.3599Z" fill="white"/>
<path d="M135.785 29.3233C134.191 29.3233 132.766 28.9156 131.506 28.0965C130.246 27.2773 129.251 26.0872 128.52 24.5298C127.789 22.9724 127.421 21.0771 127.421 18.8512C127.421 16.6252 127.792 14.6932 128.538 13.1394C129.284 11.5857 130.29 10.4103 131.557 9.61321C132.825 8.81614 134.239 8.41944 135.796 8.41944C136.986 8.41944 137.963 8.62146 138.727 9.02183C139.491 9.42221 140.101 9.90339 140.549 10.4617C140.997 11.02 141.346 11.549 141.592 12.0412H141.791V1.91431H146.584V28.967H141.883V25.7714H141.592C141.346 26.2636 140.99 26.7851 140.523 27.3361C140.057 27.8871 139.44 28.3572 138.676 28.7429C137.912 29.1286 136.946 29.3233 135.781 29.3233H135.785ZM137.118 25.4004C138.132 25.4004 138.995 25.1249 139.708 24.5739C140.421 24.0229 140.964 23.2553 141.332 22.2672C141.703 21.2828 141.886 20.1331 141.886 18.8181C141.886 17.5031 141.703 16.3644 141.339 15.3984C140.972 14.4287 140.435 13.6757 139.726 13.1394C139.017 12.6031 138.147 12.335 137.118 12.335C136.09 12.335 135.164 12.6142 134.452 13.1688C133.739 13.7235 133.203 14.4911 132.839 15.4682C132.479 16.4453 132.299 17.5656 132.299 18.8218C132.299 20.078 132.483 21.2203 132.847 22.2121C133.21 23.2038 133.754 23.9825 134.47 24.5519C135.186 25.1212 136.072 25.404 137.118 25.404V25.4004Z" fill="#F16A21"/>
<path d="M154.107 5.79685C153.35 5.79685 152.696 5.5434 152.153 5.03651C151.605 4.52961 151.333 3.91987 151.333 3.20728C151.333 2.49469 151.605 1.87026 152.153 1.36337C152.7 0.856474 153.35 0.603027 154.107 0.603027C154.863 0.603027 155.528 0.856474 156.068 1.36337C156.608 1.87026 156.88 2.48368 156.88 3.20728C156.88 3.93089 156.608 4.52961 156.068 5.03651C155.528 5.5434 154.874 5.79685 154.107 5.79685ZM151.704 28.967V8.67659H156.487V28.967H151.704Z" fill="#F16A21"/>
<path d="M186.42 5.79685C185.663 5.79685 185.009 5.5434 184.466 5.03651C183.918 4.52961 183.646 3.91987 183.646 3.20728C183.646 2.49469 183.918 1.87026 184.466 1.36337C185.013 0.856474 185.663 0.603027 186.42 0.603027C187.176 0.603027 187.841 0.856474 188.381 1.36337C188.921 1.87026 189.193 2.48368 189.193 3.20728C189.193 3.93089 188.921 4.52961 188.381 5.03651C187.841 5.5434 187.187 5.79685 186.42 5.79685ZM184.017 28.967V8.67659H188.8V28.967H184.017Z" fill="#F16A21"/>
<path d="M203.845 8.67658V12.3754H192.179V8.67658H203.845ZM195.059 3.81702H199.841V22.8659C199.841 23.5087 199.941 24.0009 200.139 24.3389C200.337 24.6768 200.598 24.9082 200.925 25.0331C201.252 25.158 201.612 25.2167 202.009 25.2167C202.306 25.2167 202.582 25.1947 202.835 25.1506C203.085 25.1065 203.276 25.0661 203.408 25.0331L204.212 28.7723C203.955 28.8605 203.595 28.956 203.121 29.0625C202.651 29.169 202.075 29.2315 201.399 29.2462C200.201 29.2829 199.121 29.0992 198.163 28.6989C197.204 28.2985 196.444 27.6741 195.885 26.8292C195.327 25.9844 195.052 24.9266 195.059 23.6593V3.81702Z" fill="#F16A21"/>
<path d="M213.685 29.3785C212.399 29.3785 211.242 29.1471 210.217 28.6843C209.192 28.2215 208.381 27.5383 207.786 26.631C207.191 25.7237 206.893 24.6071 206.893 23.2774C206.893 22.1314 207.106 21.1874 207.529 20.4381C207.951 19.6888 208.528 19.09 209.259 18.6419C209.99 18.1938 210.816 17.8522 211.734 17.6171C212.656 17.382 213.608 17.2131 214.596 17.1102C215.786 16.9853 216.748 16.8751 217.49 16.7723C218.228 16.6694 218.768 16.5115 219.11 16.2984C219.448 16.0817 219.617 15.7475 219.617 15.2883V15.2075C219.617 14.2121 219.323 13.4407 218.732 12.8971C218.14 12.3498 217.292 12.078 216.182 12.078C215.011 12.078 214.085 12.3351 213.402 12.8457C212.719 13.3563 212.26 13.9587 212.021 14.6565L207.554 14.0211C207.907 12.7869 208.487 11.7548 209.299 10.9246C210.111 10.0908 211.099 9.4664 212.271 9.04766C213.442 8.62892 214.735 8.41956 216.153 8.41956C217.13 8.41956 218.103 8.53342 219.073 8.76483C220.043 8.99257 220.928 9.3709 221.729 9.89616C222.53 10.4214 223.176 11.1303 223.665 12.0303C224.153 12.9302 224.399 14.0505 224.399 15.3985V28.9781H219.8V26.1902H219.643C219.352 26.7522 218.945 27.2811 218.419 27.7697C217.894 28.2582 217.24 28.6512 216.451 28.9451C215.661 29.2389 214.739 29.3858 213.685 29.3858V29.3785ZM214.926 25.8633C215.885 25.8633 216.719 25.6723 217.424 25.2903C218.129 24.9083 218.673 24.3977 219.055 23.7659C219.437 23.1305 219.628 22.4399 219.628 21.6906V19.2994C219.477 19.4243 219.224 19.5382 218.867 19.641C218.511 19.7438 218.111 19.8394 217.674 19.9202C217.233 20.001 216.796 20.0708 216.366 20.1332C215.936 20.1956 215.562 20.2471 215.242 20.2911C214.53 20.3866 213.89 20.5483 213.328 20.7687C212.766 20.989 212.318 21.2939 211.995 21.6869C211.668 22.08 211.507 22.5832 211.507 23.2003C211.507 24.0818 211.826 24.7467 212.473 25.1948C213.115 25.6429 213.934 25.867 214.93 25.867L214.926 25.8633Z" fill="#F16A21"/>
<path d="M234 1.91431V28.967H229.217V1.91431H234Z" fill="#F16A21"/>
<path d="M180.696 31.7328V31.8053H180.692C180.696 31.7799 180.696 31.7582 180.696 31.7328Z" fill="#BA6A47"/>
</svg>
