<svg width="36" height="36" viewBox="0 0 36 36" fill="none" xmlns="http://www.w3.org/2000/svg">
<circle cx="18" cy="18" r="18" fill="#F65D35"/>
<path d="M22.4498 11.8576L15.8519 19.1459L13.5421 16.5954C13.3262 16.3568 13.0613 16.1596 12.7626 16.0152C12.4639 15.8708 12.1373 15.782 11.8013 15.7539C11.4654 15.7258 11.1267 15.7589 10.8046 15.8513C10.4826 15.9437 10.1834 16.0936 9.92428 16.2925C9.66513 16.4914 9.45106 16.7354 9.29428 17.0105C9.1375 17.2855 9.04109 17.5864 9.01055 17.8958C8.98001 18.2052 9.01594 18.5171 9.11628 18.8137C9.21663 19.1103 9.37942 19.3858 9.59538 19.6245L13.8785 24.3601C14.1192 24.6269 14.4208 24.8416 14.7617 24.9891C15.1026 25.1365 15.4746 25.2131 15.8513 25.2133C16.2279 25.2135 16.6 25.1374 16.9412 24.9903C17.2823 24.8433 17.5841 24.6289 17.8252 24.3624L26.3965 14.8913C26.6144 14.6528 26.7789 14.3771 26.8808 14.0798C26.9827 13.7826 27.0198 13.4698 26.9901 13.1594C26.9603 12.8489 26.8644 12.5469 26.7076 12.2707C26.5508 11.9945 26.3364 11.7495 26.0766 11.5498C25.8168 11.3501 25.5168 11.1996 25.1937 11.107C24.8706 11.0144 24.5308 10.9814 24.1938 11.01C23.8568 11.0386 23.5293 11.1282 23.23 11.2736C22.9307 11.4191 22.6656 11.6175 22.4498 11.8576Z" fill="white"/>
</svg>
