<svg width="99" height="99" viewBox="0 0 99 99" fill="none" xmlns="http://www.w3.org/2000/svg">
<path d="M10.3125 18.5625H88.6875" stroke="#F36B21" stroke-width="3" stroke-linecap="round"/>
<path d="M22.6875 18.5625H76.3125V67.3998C76.3125 67.6443 76.3125 67.7666 76.2849 67.8817C76.2604 67.9838 76.22 68.0813 76.1651 68.1708C76.1033 68.2717 76.0168 68.3582 75.8439 68.5311L64.4061 79.9689C64.2332 80.1418 64.1467 80.2283 64.0458 80.2901C63.9563 80.345 63.8588 80.3854 63.7567 80.4099C63.6416 80.4375 63.5193 80.4375 63.2748 80.4375H25.0875C24.2474 80.4375 23.8274 80.4375 23.5065 80.274C23.2243 80.1302 22.9948 79.9007 22.851 79.6185C22.6875 79.2976 22.6875 78.8776 22.6875 78.0375V18.5625Z" stroke="#F36B21" stroke-width="3" stroke-linecap="round"/>
<path d="M49.5 55.6875V33" stroke="#F36B21" stroke-width="3" stroke-linecap="round"/>
<path d="M39.1875 39.1875L49.4063 31.0125C49.4611 30.9686 49.5389 30.9686 49.5937 31.0125L59.8125 39.1875" stroke="#F36B21" stroke-width="3" stroke-linecap="round"/>
<path d="M76.3125 63.9375H61.4125C60.8524 63.9375 60.5724 63.9375 60.3585 64.0465C60.1703 64.1424 60.0174 64.2953 59.9215 64.4835C59.8125 64.6974 59.8125 64.9774 59.8125 65.5375V80.4375" stroke="#F36B21" stroke-width="3"/>
</svg>
