<svg width="20" height="20" viewBox="0 0 20 20" fill="none" xmlns="http://www.w3.org/2000/svg">
<mask id="mask0_1567_233" style="mask-type:alpha" maskUnits="userSpaceOnUse" x="0" y="0" width="20" height="20">
<rect width="20" height="20" fill="#D9D9D9"/>
</mask>
<g mask="url(#mask0_1567_233)">
<path d="M10.8176 13.8421H4.52512C3.68439 13.8421 3 13.1729 3 12.3509V5.49123C3 4.66918 3.68439 4 4.52512 4H14.5909C15.4316 4 16.116 4.66918 16.116 5.49123V8.66138C16.116 8.82604 15.9794 8.95963 15.811 8.95963C15.6426 8.95963 15.506 8.82604 15.506 8.66138V5.49123C15.506 4.99787 15.0955 4.59649 14.5909 4.59649H4.52512C4.02055 4.59649 3.61005 4.99787 3.61005 5.49123V12.3509C3.61005 12.8442 4.02055 13.2456 4.52512 13.2456H10.8176C10.986 13.2456 11.1226 13.3792 11.1226 13.5439C11.1226 13.7085 10.986 13.8421 10.8176 13.8421Z" fill="#F36B21"/>
<path d="M8.18509 11.5308C8.02813 11.5308 7.87053 11.4904 7.72756 11.4096C7.44096 11.2475 7.27002 10.9579 7.27002 10.6348V7.20872C7.27002 6.88563 7.44096 6.59545 7.72756 6.4339C8.01415 6.27236 8.35603 6.27236 8.64263 6.4339L11.6776 8.14703C11.9642 8.30857 12.1351 8.59874 12.1351 8.92184C12.1351 9.24557 11.9642 9.53512 11.6776 9.69666L8.64263 11.4098C8.49901 11.4906 8.34204 11.5308 8.18509 11.5308ZM8.18636 6.90854C8.11583 6.90854 8.06054 6.93339 8.03258 6.94955C7.98683 6.97564 7.88007 7.05269 7.88007 7.20803V10.6341C7.88007 10.7894 7.98683 10.8665 8.03258 10.8926C8.07897 10.9187 8.20034 10.9703 8.3376 10.8926L11.3726 9.17947C11.5104 9.1018 11.5251 8.97318 11.5251 8.92161C11.5251 8.87004 11.5098 8.7408 11.3726 8.66375L8.3376 6.95063C8.28359 6.92018 8.23212 6.90962 8.18636 6.90962V6.90854Z" fill="#F36B21"/>
<path d="M14.5903 15.3333C12.9082 15.3333 11.54 13.9956 11.54 12.3509C11.54 10.7062 12.9082 9.36841 14.5903 9.36841C16.2724 9.36841 17.6405 10.7062 17.6405 12.3509C17.6405 13.9956 16.2724 15.3333 14.5903 15.3333ZM14.5903 9.9649C13.245 9.9649 12.1501 11.0355 12.1501 12.3509C12.1501 13.6662 13.245 14.7368 14.5903 14.7368C15.9356 14.7368 17.0305 13.6662 17.0305 12.3509C17.0305 11.0355 15.9356 9.9649 14.5903 9.9649Z" fill="#F36B21"/>
<path d="M14.8104 12.1173C14.7767 12.1042 14.7456 12.0924 14.7182 12.08C14.6865 12.0657 14.6483 12.0508 14.6064 12.0346C14.3935 11.9514 14.2848 11.8923 14.2848 11.7985C14.2848 11.7631 14.3281 11.6929 14.4246 11.6463C14.5047 11.6071 14.7252 11.5407 15.0131 11.7581C15.1472 11.8582 15.3378 11.8339 15.4414 11.7041C15.5443 11.5736 15.5196 11.3866 15.3861 11.2853C15.2304 11.1678 15.0633 11.0889 14.8949 11.0461V10.859C14.8949 10.6944 14.7583 10.5608 14.5899 10.5608C14.4215 10.5608 14.2848 10.6944 14.2848 10.859V11.0597C14.241 11.074 14.1978 11.0902 14.1558 11.1101C13.8635 11.2505 13.6748 11.5201 13.6748 11.7973C13.6748 12.3124 14.1514 12.4981 14.3808 12.5876C14.4113 12.5994 14.4386 12.61 14.4621 12.6206C14.4977 12.6367 14.539 12.6529 14.5835 12.6703C14.8282 12.7666 14.8955 12.8163 14.8955 12.9026C14.8955 12.9381 14.8523 13.0083 14.7557 13.0549C14.675 13.0934 14.4551 13.1605 14.1673 12.943C14.0332 12.8424 13.8419 12.8672 13.739 12.9971C13.636 13.1276 13.6608 13.3146 13.7943 13.4159C13.9493 13.5333 14.1171 13.6097 14.2855 13.6526V13.8421C14.2855 14.0068 14.4221 14.1404 14.5905 14.1404C14.7589 14.1404 14.8955 14.0068 14.8955 13.8421V13.6352C14.9387 13.6209 14.9826 13.6103 15.0245 13.5905C15.3168 13.45 15.5056 13.1804 15.5056 12.9033C15.5056 12.39 15.036 12.2061 14.8104 12.1173Z" fill="#F36B21"/>
</g>
</svg>
