<svg width="12" height="8" viewBox="0 0 12 8" fill="none" xmlns="http://www.w3.org/2000/svg">
<path d="M1 3.4873C0.723858 3.4873 0.5 3.71116 0.5 3.9873C0.5 4.26345 0.723858 4.4873 1 4.4873V3.4873ZM11.3284 4.34086C11.5237 4.1456 11.5237 3.82901 11.3284 3.63375L8.14647 0.451771C7.9512 0.256509 7.63462 0.256509 7.43936 0.451771C7.2441 0.647033 7.2441 0.963615 7.43936 1.15888L10.2678 3.9873L7.43936 6.81573C7.2441 7.01099 7.2441 7.32758 7.43936 7.52284C7.63462 7.7181 7.9512 7.7181 8.14647 7.52284L11.3284 4.34086ZM1 3.9873V4.4873H10.9749V3.9873V3.4873H1V3.9873Z" fill="white"/>
</svg>
