<svg width="20" height="20" viewBox="0 0 20 20" fill="none" xmlns="http://www.w3.org/2000/svg">
<mask id="mask0_1567_231" style="mask-type:alpha" maskUnits="userSpaceOnUse" x="0" y="0" width="20" height="20">
<rect width="20" height="20" fill="#D9D9D9"/>
</mask>
<g mask="url(#mask0_1567_231)">
<path fill-rule="evenodd" clip-rule="evenodd" d="M6.18899 2.65626C6.25494 2.59178 6.34398 2.55566 6.43763 2.55566H12.7688C12.9627 2.55566 13.1203 2.70978 13.1203 2.89936V16.6564C13.1203 16.846 12.9627 17.0001 12.7688 17.0001H2.91987C2.72598 17.0001 2.56836 16.846 2.56836 16.6564V6.33895C2.56836 6.24739 2.60529 6.16034 2.67124 6.09584L6.18899 2.65626ZM6.58337 3.24371L3.27208 6.48141V16.3121H12.4167V3.24371H6.58337Z" fill="#F36B21"/>
<path fill-rule="evenodd" clip-rule="evenodd" d="M6.57305 2.58201C6.70429 2.63489 6.79003 2.76063 6.79003 2.89928V6.33887C6.79003 6.52845 6.63241 6.68257 6.43852 6.68257H2.92076C2.77896 6.68257 2.65036 6.59874 2.59628 6.47041C2.54154 6.34144 2.57188 6.19377 2.67212 6.09576L6.18989 2.65616C6.29013 2.55815 6.44116 2.52849 6.57305 2.58201ZM3.77011 5.99453H6.08631V3.72981L3.77011 5.99453Z" fill="#F36B21"/>
<path fill-rule="evenodd" clip-rule="evenodd" d="M14.5274 6.33872C14.5274 6.1485 14.685 5.99438 14.8795 5.99438H16.9899C17.1838 5.99438 17.3414 6.1485 17.3414 6.33872V11.8411C17.3414 11.9153 17.317 11.9882 17.2709 12.0475L16.2157 13.4229C16.1497 13.51 16.0455 13.5609 15.9347 13.5609C15.8239 13.5609 15.7197 13.51 15.6531 13.4229L14.5979 12.0475C14.5524 11.9882 14.5273 11.9153 14.5273 11.8411L14.5274 6.33872ZM15.2311 6.68242V11.7264L15.9347 12.6434L16.6378 11.7264V6.68242H15.2311Z" fill="#F36B21"/>
<path fill-rule="evenodd" clip-rule="evenodd" d="M7.84471 9.43408C7.96012 9.43408 8.06894 9.48954 8.13422 9.58304L9.05619 10.8985L10.6199 11.3493C10.7313 11.3809 10.819 11.4647 10.8553 11.5724C10.8909 11.6807 10.8698 11.7987 10.7992 11.8884L9.80538 13.1523L9.85022 14.7456C9.85286 14.8591 9.79878 14.9668 9.70513 15.0333C9.61148 15.0997 9.48948 15.1171 9.38065 15.079L7.84468 14.5451L6.30804 15.079C6.19923 15.1171 6.07722 15.0997 5.98357 15.0333C5.88992 14.9668 5.83584 14.8591 5.83848 14.7456L5.88332 13.1523L4.88947 11.8884C4.8189 11.7987 4.7978 11.6807 4.83341 11.5724C4.86968 11.4647 4.9574 11.3809 5.06884 11.3493L6.63251 10.8985L7.55448 9.58304C7.61977 9.48954 7.72862 9.43408 7.84471 9.43408ZM7.84471 10.3859L7.14234 11.3879C7.09617 11.4531 7.0289 11.5008 6.95175 11.5234L5.76003 11.8671L6.51714 12.8292C6.5666 12.8923 6.59232 12.9697 6.59034 13.0484L6.55605 14.2626L7.72666 13.8558C7.8025 13.8293 7.88626 13.8293 7.96209 13.8558L9.1327 14.2626L9.09841 13.0484C9.09643 12.9697 9.12215 12.8923 9.17161 12.8292L9.92872 11.8671L8.73701 11.5234C8.65985 11.5008 8.59258 11.4531 8.54641 11.3879L7.84471 10.3859Z" fill="#F36B21"/>
<path fill-rule="evenodd" clip-rule="evenodd" d="M10.6584 8.40216H5.03027V7.71411H10.6584V8.40216Z" fill="#F36B21"/>
</g>
</svg>
