<svg width="22" height="22" viewBox="0 0 22 22" fill="none" xmlns="http://www.w3.org/2000/svg">
<path fill-rule="evenodd" clip-rule="evenodd" d="M7.79693 18.3502C7.32425 17.975 7.02113 17.398 7.01723 16.748C5.36331 15.5424 4.28819 13.5913 4.28819 11.3894C4.28819 7.73171 7.25775 4.76214 10.9154 4.76214C14.5731 4.76214 17.5427 7.73171 17.5427 11.3894C17.5427 13.5911 16.4677 15.5424 14.8137 16.748C14.8098 17.3971 14.5067 17.975 14.034 18.3502V19.5763C14.034 20.8677 12.9863 21.9154 11.6949 21.9154H10.1355C8.84414 21.9154 7.79643 20.8677 7.79643 19.5763L7.79693 18.3502ZM9.35631 18.7966V19.5763C9.35631 20.0071 9.70522 20.356 10.136 20.356H11.6954C12.1262 20.356 12.4751 20.0071 12.4751 19.5763V18.7966H9.35631ZM12.7548 17.2372C13.0306 17.2372 13.2548 17.0131 13.2548 16.7372C13.2548 16.6778 13.2548 16.6222 13.2567 16.5716C13.2635 16.1622 13.4692 15.7802 13.8015 15.555C15.1192 14.6399 15.9837 13.1146 15.9837 11.3896C15.9837 8.59245 13.7128 6.32174 10.9158 6.32174C8.11879 6.32174 5.84792 8.5926 5.84792 11.3896C5.84792 13.1936 6.79234 14.7783 8.21332 15.6771C8.43846 15.8193 8.57587 16.0659 8.57685 16.332V16.7374C8.57685 17.0133 8.80101 17.2374 9.07682 17.2374L12.7548 17.2372ZM10.136 0.863677C10.136 0.433861 10.4859 0.0839844 10.9157 0.0839844C11.3455 0.0839844 11.6954 0.433861 11.6954 0.863677V2.42306C11.6954 2.85288 11.3455 3.20275 10.9157 3.20275C10.4859 3.20275 10.136 2.85288 10.136 2.42306V0.863677ZM21.0517 10.22C21.4815 10.22 21.8314 10.5699 21.8314 10.9997C21.8314 11.4295 21.4815 11.7794 21.0517 11.7794H19.4923C19.0625 11.7794 18.7126 11.4295 18.7126 10.9997C18.7126 10.5699 19.0625 10.22 19.4923 10.22H21.0517ZM2.33908 10.22C2.76889 10.22 3.11877 10.5699 3.11877 10.9997C3.11877 11.4295 2.76889 11.7794 2.33908 11.7794H0.779693C0.349876 11.7794 0 11.4295 0 10.9997C0 10.5699 0.349876 10.22 0.779693 10.22H2.33908ZM5.16244 4.14412C5.46653 4.44822 5.46653 4.94233 5.16244 5.24642C4.85835 5.55052 4.36423 5.55052 4.06014 5.24642L2.95687 4.14412C2.65278 3.83906 2.65278 3.34592 2.95687 3.04085C3.26194 2.73676 3.75508 2.73676 4.06014 3.04085L5.16244 4.14412ZM17.7049 5.31366C17.3998 5.61776 16.9067 5.61776 16.6016 5.31366C16.2975 5.0086 16.2975 4.51546 16.6016 4.21039L17.7049 3.10809C18.009 2.804 18.5031 2.804 18.8072 3.10809C19.1113 3.41219 19.1113 3.9063 18.8072 4.21039L17.7049 5.31366Z" fill="white"/>
</svg>
