<svg width="20" height="20" viewBox="0 0 20 20" fill="none" xmlns="http://www.w3.org/2000/svg">
<mask id="mask0_1567_229" style="mask-type:alpha" maskUnits="userSpaceOnUse" x="0" y="0" width="20" height="20">
<rect width="20" height="20" fill="#D9D9D9"/>
</mask>
<g mask="url(#mask0_1567_229)">
<path fill-rule="evenodd" clip-rule="evenodd" d="M9.02488 13.4866H2.38393C1.89571 13.4866 1.5 13.0909 1.5 12.6027V3.32143C1.5 2.83321 1.89571 2.4375 2.38393 2.4375H17.1161C17.6043 2.4375 18 2.83321 18 3.32143V12.6027C18 13.0909 17.6043 13.4866 17.1161 13.4866H10.4751L10.73 14.8125H12.1071C12.3417 14.8125 12.5665 14.9056 12.7321 15.0715C12.898 15.2371 12.9911 15.4619 12.9911 15.6964V15.9911C12.9911 16.2256 12.898 16.4504 12.7321 16.616C12.5665 16.7819 12.3417 16.875 12.1071 16.875H7.39286C7.15832 16.875 6.93351 16.7819 6.76792 16.616C6.60204 16.4504 6.50893 16.2256 6.50893 15.9911V15.6964C6.50893 15.4619 6.60204 15.2371 6.76792 15.0715C6.93351 14.9056 7.15832 14.8125 7.39286 14.8125H8.77002L9.02488 13.4866ZM2.38393 12.8973H17.1161C17.2787 12.8973 17.4107 12.7653 17.4107 12.6027V3.32143C17.4107 3.15879 17.2787 3.02679 17.1161 3.02679H2.38393C2.22129 3.02679 2.08929 3.15879 2.08929 3.32143V12.6027C2.08929 12.7653 2.22129 12.8973 2.38393 12.8973ZM10.1298 14.8125L9.87493 13.4866H9.62507L9.37021 14.8125H10.1298ZM12.1071 15.4018H7.39286C7.31478 15.4018 7.23964 15.4327 7.18454 15.4881C7.12915 15.5432 7.09821 15.6183 7.09821 15.6964V15.9911C7.09821 16.0692 7.12915 16.1443 7.18454 16.1994C7.23964 16.2548 7.31478 16.2857 7.39286 16.2857H12.1071C12.1852 16.2857 12.2604 16.2548 12.3155 16.1994C12.3708 16.1443 12.4018 16.0692 12.4018 15.9911V15.6964C12.4018 15.6183 12.3708 15.5432 12.3155 15.4881C12.2604 15.4327 12.1852 15.4018 12.1071 15.4018ZM2.97321 12.1607C2.81057 12.1607 2.67857 12.0287 2.67857 11.8661C2.67857 11.7034 2.81057 11.5714 2.97321 11.5714H16.5268C16.6894 11.5714 16.8214 11.7034 16.8214 11.8661C16.8214 12.0287 16.6894 12.1607 16.5268 12.1607H2.97321ZM6.80357 7.44643H5.84598C5.75022 7.44643 5.66036 7.39988 5.60496 7.3215C5.54987 7.24313 5.53631 7.14265 5.56872 7.05249L6.37722 4.79464H5.91964C5.757 4.79464 5.625 4.66264 5.625 4.5C5.625 4.33736 5.757 4.20536 5.91964 4.20536H13.5804C13.743 4.20536 13.875 4.33736 13.875 4.5C13.875 4.66264 13.743 4.79464 13.5804 4.79464H13.1228L13.9313 7.05249C13.9637 7.14265 13.9501 7.24313 13.895 7.3215C13.8396 7.39988 13.7498 7.44643 13.654 7.44643H12.6964V10.0982H12.9911C13.1537 10.0982 13.2857 10.2302 13.2857 10.3929C13.2857 10.5555 13.1537 10.6875 12.9911 10.6875H6.50893C6.34629 10.6875 6.21429 10.5555 6.21429 10.3929C6.21429 10.2302 6.34629 10.0982 6.50893 10.0982H6.80357V7.44643ZM7.00304 4.79464L6.26438 6.85714H12.4018H13.2356L12.497 4.79464H7.00304ZM12.1071 10.0982V7.44643H7.39286V10.0982H12.1071ZM8.60502 6.21394C8.55346 6.36833 8.38639 6.45142 8.232 6.39986C8.0779 6.34829 7.99452 6.18123 8.04608 6.02713L8.2432 5.43785C8.29476 5.28346 8.46182 5.20037 8.61621 5.25193C8.77031 5.30349 8.8537 5.47055 8.80213 5.62465L8.60502 6.21394ZM11.4539 6.02713C11.5055 6.18123 11.4221 6.34829 11.268 6.39986C11.1136 6.45142 10.9465 6.36833 10.895 6.21394L10.6979 5.62465C10.6463 5.47055 10.7297 5.30349 10.8838 5.25193C11.0382 5.20037 11.2052 5.28346 11.2568 5.43785L11.4539 6.02713ZM9.45536 5.53125C9.45536 5.36861 9.58736 5.23661 9.75 5.23661C9.91264 5.23661 10.0446 5.36861 10.0446 5.53125V6.12054C10.0446 6.28318 9.91264 6.41518 9.75 6.41518C9.58736 6.41518 9.45536 6.28318 9.45536 6.12054V5.53125ZM11.2232 9.21429C11.3859 9.21429 11.5179 9.34629 11.5179 9.50893C11.5179 9.67157 11.3859 9.80357 11.2232 9.80357H8.27679C8.11414 9.80357 7.98214 9.67157 7.98214 9.50893C7.98214 9.34629 8.11414 9.21429 8.27679 9.21429H11.2232Z" fill="#F36B21"/>
</g>
</svg>
