<svg width="20" height="20" viewBox="0 0 20 20" fill="none" xmlns="http://www.w3.org/2000/svg">
<mask id="mask0_1567_227" style="mask-type:alpha" maskUnits="userSpaceOnUse" x="0" y="0" width="20" height="20">
<rect width="20" height="20" fill="#D9D9D9"/>
</mask>
<g mask="url(#mask0_1567_227)">
<path d="M16.9993 8.81516L17 15.2547C17 15.6938 16.8195 16.0943 16.5292 16.3852L16.5278 16.3866C16.2362 16.6773 15.8361 16.8574 15.3971 16.8574H4.60288C4.16304 16.8574 3.76254 16.6771 3.47204 16.3868L3.47065 16.3854C3.18032 16.0949 3 15.6945 3 15.2547V8.81516C3 8.69332 3.05918 8.58524 3.15038 8.51822L9.05122 3.34494C9.32432 3.10544 9.67051 2.9916 10.0188 3.00048C10.3622 3.00936 10.7091 3.13799 10.9886 3.38271L16.8616 8.52884C16.8822 8.54555 16.9015 8.56487 16.9187 8.58645L16.9208 8.58889L16.9219 8.59046L16.9248 8.59429L16.9265 8.59637L16.9278 8.59829L16.9307 8.60229L16.9363 8.61047L16.9391 8.61465L16.9417 8.61865L16.9443 8.62283L16.9469 8.62701L16.9493 8.63136L16.9518 8.63554L16.9565 8.64389L16.9587 8.64842L16.9607 8.65207L16.965 8.66147L16.9671 8.666L16.9683 8.66861L16.969 8.67035L16.9709 8.67487L16.9762 8.68828L16.9777 8.6928L16.9793 8.6975L16.9809 8.70203L16.9824 8.70655L16.9838 8.71108L16.985 8.71578L16.9862 8.71978L16.9876 8.725L16.9885 8.72848L16.9899 8.7344L16.9904 8.73719L16.9909 8.7391L16.9918 8.7438L16.9923 8.74589L16.9929 8.7485L16.9937 8.7532L16.9944 8.7579L16.9951 8.76277L16.9958 8.76747L16.9963 8.77217C16.9979 8.7861 16.9986 8.80037 16.9993 8.81516ZM16.263 9.54463L12.1038 12.6211L16.2079 15.559C16.2436 15.4643 16.263 15.3617 16.263 15.2547V9.54463ZM11.4762 12.1717L16.0467 8.7908L10.5051 3.93516C10.358 3.80653 10.1779 3.73883 10.0014 3.7343C9.83134 3.73012 9.66407 3.78391 9.53475 3.89739L3.95313 8.7908L8.52331 12.1711L9.11649 11.7464C9.36539 11.568 9.69227 11.4829 10.0179 11.4892C10.3378 11.4953 10.6645 11.5908 10.9197 11.7732L11.4762 12.1717ZM7.89567 12.6205L3.73695 9.54463V15.2547C3.73695 15.3617 3.75679 15.4644 3.79248 15.5593L3.8057 15.5492L7.89567 12.6205ZM15.6669 16.0775L10.4922 12.372C10.3594 12.2764 10.1817 12.2265 10.0037 12.223C9.83099 12.2197 9.66407 12.2601 9.54537 12.3452L4.33327 16.0773C4.41821 16.1053 4.50889 16.1205 4.60288 16.1205H15.3971C15.4913 16.1205 15.582 16.1053 15.6669 16.0775Z" fill="#F36B21"/>
</g>
</svg>
