<svg width="40" height="40" viewBox="0 0 40 40" fill="none" xmlns="http://www.w3.org/2000/svg">
<path d="M40 20C40 31.0459 31.0459 40 20 40C8.9541 40 0 31.0459 0 20C0 8.9541 8.9541 0 20 0C31.0459 0 40 8.9541 40 20Z" fill="black"/>
<path d="M25.9261 18.4483L25.5929 21.124C25.5365 21.571 25.158 21.9072 24.7091 21.9072H20.3755V33.094C19.9185 33.1353 19.4554 33.1564 18.9873 33.1564C17.9404 33.1564 16.9187 33.0517 15.9311 32.8524V21.9072H12.5981C12.2921 21.9072 12.0425 21.6565 12.0425 21.3495V18.0014C12.0425 17.6944 12.2921 17.4437 12.5981 17.4437H15.9311V12.4226C15.9311 9.34123 18.4186 6.84375 21.4878 6.84375H25.3765C25.6825 6.84375 25.9322 7.0944 25.9322 7.40143V10.7495C25.9322 11.0566 25.6825 11.3072 25.3765 11.3072H22.5981C21.371 11.3072 20.3765 12.3058 20.3765 13.5389V17.4447H25.0433C25.5788 17.4447 25.9926 17.9158 25.9271 18.4493L25.9261 18.4483Z" fill="white"/>
</svg>
