<svg width="14" height="14" viewBox="0 0 14 14" fill="none" xmlns="http://www.w3.org/2000/svg">
<path d="M14 5.13431C14 4.31051 14 3.59731 13.9187 3.00147C13.8014 2.13705 13.5125 1.50058 13.0069 0.992764C12.5014 0.487202 11.8626 0.19831 10.9982 0.0809472C10.4024 0.00195321 9.68918 0.00195312 8.86539 0.00195312H7.16589C6.34209 0.00195312 5.63115 0.00195326 5.03305 0.0832043C4.16863 0.19831 3.5299 0.489459 3.02434 0.995021C2.51878 1.50058 2.22989 2.13931 2.11253 3.00373C2.06964 3.32196 2.04933 3.71919 2.0403 3.99679V4.08482L0.622924 5.49768C0.221183 5.89942 0 6.43207 0 7.00082C0 7.56958 0.221183 8.10223 0.622924 8.50397L2.03579 9.91683V10.0049C2.04933 10.2847 2.06964 10.6819 2.11027 10.9979C2.22763 11.8623 2.51652 12.4988 3.02209 13.0066C3.52765 13.5122 4.16637 13.8011 5.03079 13.9184C5.62889 13.9997 6.33984 13.9997 7.16363 13.9997H8.86313C9.68693 13.9997 10.3979 13.9997 10.996 13.9207C11.8604 13.8033 12.4991 13.5144 13.0047 13.0089C13.5102 12.5033 13.7991 11.8646 13.9165 11.0002C13.9977 10.4043 13.9977 9.69114 13.9977 8.86734V5.13657L14 5.13431ZM12.6458 8.86508C12.6458 9.64148 12.6458 10.3095 12.5781 10.8174C12.4811 11.5328 12.2576 11.842 12.0522 12.0474C11.8446 12.2551 11.5376 12.4785 10.8222 12.5733C10.3144 12.641 9.6463 12.641 8.8699 12.641H7.1704C6.394 12.641 5.72594 12.641 5.21812 12.5733C4.50266 12.4762 4.19345 12.2528 3.98807 12.0474C3.78269 11.8398 3.55699 11.5328 3.4622 10.8174C3.42157 10.5217 3.40126 10.0523 3.39449 9.71371C3.39449 9.41127 3.2681 9.22394 3.06497 9.02081L1.58891 7.54475C1.44221 7.39805 1.36321 7.20847 1.36321 7.00082C1.36321 6.79318 1.44221 6.6036 1.58891 6.45689L3.06497 4.98083C3.2681 4.77771 3.39449 4.59038 3.39449 4.29246C3.40126 3.95165 3.42157 3.48446 3.4622 3.18428C3.55925 2.46882 3.78269 2.15962 3.98807 1.95423C4.19571 1.74659 4.50266 1.52315 5.21812 1.42836C5.72594 1.36065 6.394 1.36065 7.1704 1.36065H8.8699C9.64404 1.36065 10.3144 1.36065 10.8222 1.42836C11.5376 1.52541 11.8468 1.74885 12.0522 1.95423C12.2576 2.16188 12.4833 2.46882 12.5781 3.18428C12.6458 3.68985 12.6458 4.36017 12.6458 5.13657V8.86734V8.86508Z" fill="#676767"/>
<path d="M7.9061 3.61328C7.5337 3.61328 7.229 3.91797 7.229 4.29037V6.32165C7.229 6.69405 7.5337 6.99874 7.9061 6.99874C8.2785 6.99874 8.58319 6.69405 8.58319 6.32165V4.29037C8.58319 3.91797 8.2785 3.61328 7.9061 3.61328Z" fill="#676767"/>
<path d="M8.53146 9.22155C8.51341 9.17867 8.49309 9.13805 8.46827 9.09968C8.4457 9.06582 8.4141 9.02971 8.3825 8.99586C8.26063 8.87398 8.08458 8.80176 7.90854 8.80176C7.73249 8.80176 7.55645 8.87398 7.4278 9.00037C7.40072 9.02971 7.36912 9.06582 7.34204 9.10419C7.32172 9.13805 7.29916 9.17867 7.28336 9.2193C7.2653 9.26218 7.25176 9.30506 7.24499 9.34569C7.23596 9.39534 7.23145 9.43822 7.23145 9.47885C7.23145 9.51948 7.23596 9.56461 7.24499 9.61201C7.25176 9.65264 7.2653 9.69326 7.28336 9.73614C7.30141 9.77903 7.32172 9.81965 7.34655 9.85802C7.36912 9.89187 7.40072 9.92799 7.43232 9.96184C7.67833 10.2033 8.12972 10.2101 8.38702 9.95733C8.4141 9.92799 8.4457 9.89188 8.47278 9.85351C8.49309 9.81965 8.51566 9.77903 8.53146 9.7384C8.54952 9.69552 8.56306 9.65264 8.56983 9.61201C8.57886 9.56236 8.58337 9.51948 8.58337 9.47885C8.58337 9.43822 8.57886 9.39534 8.56983 9.34569C8.56306 9.30506 8.54952 9.26444 8.53146 9.22155Z" fill="#676767"/>
</svg>
