<svg width="40" height="40" viewBox="0 0 40 40" fill="none" xmlns="http://www.w3.org/2000/svg">
<path d="M39.999 20C39.999 31.0459 31.0449 40 19.999 40C8.9541 39.999 0 31.0449 0 20C0 8.9541 8.9541 0 20 0C31.0459 0 40 8.9541 40 20H39.999Z" fill="black"/>
<path d="M25.4254 9.50977H14.5727C11.7763 9.50977 9.5083 11.7777 9.5083 14.5742V25.4268C9.5083 28.2233 11.7763 30.4912 14.5727 30.4912H25.4254C28.2218 30.4912 30.4898 28.2233 30.4898 25.4268V14.5742C30.4898 11.7777 28.2218 9.50977 25.4254 9.50977ZM28.6808 25.0654C28.6808 27.0626 27.0601 28.6833 25.063 28.6833H14.9341C12.9369 28.6833 11.3162 27.0626 11.3162 25.0654V14.9366C11.3162 12.9394 12.9369 11.3187 14.9341 11.3187H25.063C27.0601 11.3187 28.6808 12.9394 28.6808 14.9366V25.0654Z" fill="white"/>
<path d="M20.0103 14.5723C17.0155 14.5723 14.5845 17.0033 14.5845 19.9981C14.5845 22.9928 17.0155 25.4239 20.0103 25.4239C23.005 25.4239 25.4361 22.9928 25.4361 19.9981C25.4361 17.0033 23.005 14.5723 20.0103 14.5723ZM20.0103 23.616C18.0171 23.616 16.3924 21.9912 16.3924 19.9981C16.3924 18.0049 18.0171 16.3802 20.0103 16.3802C22.0034 16.3802 23.6282 18.0049 23.6282 19.9981C23.6282 21.9912 22.0034 23.616 20.0103 23.616Z" fill="white"/>
<path d="M25.7981 15.2973C25.2001 15.2973 24.7129 14.8101 24.7129 14.2121C24.7129 13.6142 25.2001 13.127 25.7981 13.127C26.396 13.127 26.8832 13.6142 26.8832 14.2121C26.8832 14.8101 26.396 15.2973 25.7981 15.2973Z" fill="white"/>
</svg>
