<svg width="20" height="20" viewBox="0 0 20 20" fill="none" xmlns="http://www.w3.org/2000/svg">
<mask id="mask0_1567_226" style="mask-type:alpha" maskUnits="userSpaceOnUse" x="0" y="0" width="20" height="20">
<rect width="20" height="20" fill="#D9D9D9"/>
</mask>
<g mask="url(#mask0_1567_226)">
<path d="M16.82 15.0305H2.84285C2.19187 15.0305 1.66309 14.5134 1.66309 13.8769L1.66374 5.43284C1.66374 4.79633 2.19253 4.2793 2.84351 4.2793H3.16801C3.30005 4.2793 3.40843 4.38527 3.40843 4.51438C3.40843 4.64348 3.30005 4.74946 3.16801 4.74946H2.84351C2.45922 4.74946 2.14459 5.05455 2.14459 5.43284V13.8769C2.14459 14.2527 2.45661 14.5603 2.84351 14.5603H16.82C17.2043 14.5603 17.5189 14.2552 17.5189 13.8769V5.43284C17.5189 5.0571 17.2069 4.74946 16.82 4.74946H16.5028C16.3707 4.74946 16.2623 4.64348 16.2623 4.51438C16.2623 4.38528 16.3707 4.2793 16.5028 4.2793H16.82C17.471 4.2793 17.9998 4.79633 17.9998 5.43284V13.8769C17.9998 14.5134 17.471 15.0305 16.82 15.0305Z" fill="#F36B21"/>
<path d="M12.099 17.7929H7.56318C7.43114 17.7929 7.32275 17.687 7.32275 17.5579V15.7324C7.32275 15.6033 7.43114 15.4973 7.56318 15.4973C7.69521 15.4973 7.8036 15.6033 7.8036 15.7324V17.3227H11.8585V15.7324C11.8585 15.6033 11.9669 15.4973 12.0989 15.4973C12.231 15.4973 12.3394 15.6033 12.3394 15.7324V17.5579C12.3394 17.687 12.2311 17.7929 12.099 17.7929Z" fill="#F36B21"/>
<path d="M12.9572 17.7927H6.70624C6.57421 17.7927 6.46582 17.6867 6.46582 17.5576C6.46582 17.4285 6.57421 17.3225 6.70624 17.3225H12.9572C13.0892 17.3225 13.1976 17.4285 13.1976 17.5576C13.1976 17.6867 13.0892 17.7927 12.9572 17.7927Z" fill="#F36B21"/>
<path d="M14.2838 12.5286H5.38769C4.70059 12.5286 4.14355 11.9839 4.14355 11.3121V3.8327C4.14355 3.16344 4.70059 2.61621 5.38769 2.61621H14.2859C14.973 2.61621 15.53 3.16087 15.53 3.8327V11.3115C15.53 11.9807 14.973 12.5279 14.2859 12.5279L14.2838 12.5286ZM5.38769 3.08825C4.96728 3.08825 4.62373 3.42159 4.62373 3.83523V11.314C4.62373 11.725 4.96728 12.061 5.38769 12.061H14.2859C14.7063 12.061 15.0498 11.7276 15.0498 11.314V3.8326C15.0498 3.42154 14.7063 3.08561 14.2859 3.08561H5.38769V3.08825Z" fill="#F36B21"/>
<path d="M6.01641 4.33539H5.76679C5.63476 4.33539 5.52637 4.22942 5.52637 4.10031C5.52637 3.97121 5.63475 3.86523 5.76679 3.86523H6.01641C6.14845 3.86523 6.25683 3.97121 6.25683 4.10031C6.25683 4.22942 6.14845 4.33539 6.01641 4.33539Z" fill="#F36B21"/>
<path d="M7.32403 4.33539H7.07441C6.94237 4.33539 6.83398 4.22942 6.83398 4.10031C6.83398 3.97121 6.94237 3.86523 7.07441 3.86523H7.32403C7.45606 3.86523 7.56445 3.97121 7.56445 4.10031C7.56445 4.22942 7.45606 4.33539 7.32403 4.33539Z" fill="#F36B21"/>
<path d="M8.63311 4.33539H8.38349C8.25145 4.33539 8.14307 4.22942 8.14307 4.10031C8.14307 3.97121 8.25145 3.86523 8.38349 3.86523H8.63311C8.76514 3.86523 8.87353 3.97121 8.87353 4.10031C8.87353 4.22942 8.76515 4.33539 8.63311 4.33539Z" fill="#F36B21"/>
<path d="M13.9037 4.33539H12.0783C11.9463 4.33539 11.8379 4.22942 11.8379 4.10031C11.8379 3.97121 11.9463 3.86523 12.0783 3.86523H13.9037C14.0358 3.86523 14.1441 3.97121 14.1441 4.10031C14.1441 4.22942 14.0358 4.33539 13.9037 4.33539Z" fill="#F36B21"/>
<path d="M7.56473 7.04145H6.01777C5.88573 7.04145 5.77734 6.93547 5.77734 6.80637C5.77734 6.67727 5.88573 6.57129 6.01777 6.57129H7.56473C7.69676 6.57129 7.80515 6.67727 7.80515 6.80637C7.80515 6.93547 7.69677 7.04145 7.56473 7.04145Z" fill="#F36B21"/>
<path d="M9.5699 8.54975H6.01679C5.88476 8.54975 5.77637 8.44377 5.77637 8.31467C5.77637 8.18557 5.88475 8.07959 6.01679 8.07959H9.5699C9.70194 8.07959 9.81033 8.18557 9.81033 8.31467C9.81033 8.44377 9.70194 8.54975 9.5699 8.54975Z" fill="#F36B21"/>
<path d="M9.5699 10.0578H6.01679C5.88476 10.0578 5.77637 9.95183 5.77637 9.82273C5.77637 9.69362 5.88475 9.58765 6.01679 9.58765H9.5699C9.70194 9.58765 9.81033 9.69362 9.81033 9.82273C9.81033 9.95183 9.70194 10.0578 9.5699 10.0578Z" fill="#F36B21"/>
<path d="M12.4815 10.6844C12.4164 10.6844 12.3566 10.6587 12.3107 10.6163L11.0685 9.40177C10.9746 9.30992 10.9746 9.1622 11.0685 9.07035C11.1624 8.9785 11.3135 8.9785 11.4074 9.07035L12.4815 10.1205L13.5555 9.07035C13.6494 8.9785 13.8005 8.9785 13.8944 9.07035C13.9883 9.1622 13.9883 9.30992 13.8944 9.40177L12.6522 10.6163C12.6069 10.6606 12.5465 10.6844 12.4815 10.6844Z" fill="#F36B21"/>
<path d="M12.4821 10.6845C12.3501 10.6845 12.2417 10.5785 12.2417 10.4494V6.80637C12.2417 6.67727 12.3501 6.57129 12.4821 6.57129C12.6142 6.57129 12.7225 6.67727 12.7225 6.80637V10.4494C12.7225 10.5785 12.6142 10.6845 12.4821 10.6845Z" fill="#F36B21"/>
</g>
</svg>
