<svg width="20" height="20" viewBox="0 0 20 20" fill="none" xmlns="http://www.w3.org/2000/svg">
<mask id="mask0_1567_230" style="mask-type:alpha" maskUnits="userSpaceOnUse" x="0" y="0" width="20" height="20">
<rect width="20" height="20" fill="#D9D9D9"/>
</mask>
<g mask="url(#mask0_1567_230)">
<path fill-rule="evenodd" clip-rule="evenodd" d="M16.5155 13.7903C16.19 13.9778 15.7333 14.2703 15.2045 14.6094C13.9145 15.4365 11.6275 16.904 10.9518 16.8605C10.4611 16.8343 9.98052 16.7933 9.51594 16.7536C8.38378 16.6565 7.16856 16.546 5.94621 16.7276V13.8517C6.33815 13.8327 6.80709 13.7942 7.27874 13.6982C7.5705 13.6387 8.09589 13.4006 8.648 13.1545C9.73536 12.6696 9.81756 12.6861 10.8271 12.891C11.1715 12.9608 11.5109 13.0225 11.8912 13.1293C12.5293 13.3087 12.8808 13.5255 12.8808 13.7402C12.8808 13.8668 12.8441 14.01 12.7589 14.0987C12.6234 14.2397 12.3956 14.3748 12.1627 14.3314L10.3183 13.9865C10.2884 13.981 10.2579 13.981 10.2282 13.9862L9.41235 14.1323C9.27845 14.1563 9.18961 14.2826 9.2141 14.4142C9.23819 14.5461 9.36668 14.6333 9.50037 14.6094L10.2714 14.4714L12.0708 14.8076C12.1312 14.8189 12.1924 14.8244 12.2534 14.8244C12.5221 14.8244 12.794 14.718 13.0205 14.5231C13.0431 14.518 13.0653 14.5099 13.0865 14.4982L16.4013 12.7097C16.8107 12.5219 17.1719 12.6075 17.2728 12.796C17.3832 13.0013 17.193 13.4002 16.5155 13.7903ZM5.45361 17.2781C5.45361 17.4246 5.33278 17.5433 5.18436 17.5433H3.59214C3.44351 17.5433 3.32269 17.4246 3.32269 17.2781V13.5676C3.32269 13.4215 3.44351 13.3025 3.59214 13.3025H5.18436C5.33278 13.3025 5.45361 13.4215 5.45361 13.5676V17.2781ZM6.6433 10.9681V13.2761C6.81706 13.255 6.99496 13.2279 7.17204 13.1916C7.30946 13.1636 7.55463 13.0666 7.83674 12.9457V10.9681C7.83674 10.9358 7.80913 10.9085 7.77633 10.9085H6.70371C6.67112 10.9085 6.6433 10.9358 6.6433 10.9681ZM10.1912 9.34951H11.2638C11.2967 9.34951 11.3243 9.37672 11.3243 9.40905V12.4634C10.9634 12.3873 10.4061 12.2743 10.1306 12.2487V9.40905C10.1306 9.37672 10.1582 9.34951 10.1912 9.34951ZM13.687 7.03639C13.6547 7.03639 13.6266 7.06352 13.6266 7.09584V13.6171L14.8203 12.9731V7.09584C14.8203 7.06352 14.7927 7.03639 14.7599 7.03639H13.687ZM17.7375 12.5545C17.4833 12.0803 16.8094 11.9475 16.1698 12.2455L15.3129 12.7071V7.09584C15.3129 6.79554 15.0648 6.5515 14.7599 6.5515H13.687C13.3823 6.5515 13.134 6.79554 13.134 7.09584V13.1549C12.8111 12.8523 12.2525 12.6829 11.8169 12.5743V9.40905C11.8169 9.10874 11.569 8.8647 11.2638 8.8647H10.1912C9.88607 8.8647 9.638 9.10874 9.638 9.40905V12.2585C9.28215 12.3115 8.87897 12.4814 8.32956 12.7288V10.9681C8.32956 10.6678 8.08148 10.4237 7.77633 10.4237H6.70371C6.39897 10.4237 6.15069 10.6678 6.15069 10.9681V13.322C6.06745 13.3275 5.98669 13.3319 5.90885 13.3355C5.8092 13.0352 5.52231 12.8177 5.18436 12.8177H3.59214C3.17177 12.8177 2.83008 13.1541 2.83008 13.5676V17.2781C2.83008 17.6919 3.17177 18.0281 3.59214 18.0281H5.18436C5.60431 18.0281 5.94621 17.6919 5.94621 17.2781V17.2507C7.07765 17.0677 8.2057 17.1604 9.47026 17.2688C9.93921 17.3089 10.4239 17.3506 10.9232 17.3771C11.7164 17.4231 13.5155 16.3087 15.4912 15.0426C16.0146 14.7073 16.4665 14.4177 16.7808 14.2367C17.8281 13.6338 17.9617 12.9722 17.7375 12.5545ZM4.026 10.1347C4.07538 10.2613 4.21861 10.3217 4.34424 10.2744C8.32554 8.77511 11.8741 6.60772 14.976 3.75802L14.664 5.03868C14.632 5.16868 14.7138 5.29958 14.8458 5.33094C14.9783 5.3623 15.1111 5.28177 15.1431 5.15151C15.1954 4.93751 15.6545 3.07565 15.6565 3.02779C15.6569 3.02779 15.6569 3.02749 15.6569 3.02749C15.66 2.89944 15.5855 2.84264 15.5855 2.84128H15.5853L15.5846 2.84032C15.5388 2.78655 15.4456 2.76264 15.3737 2.77241L13.2214 3.0701C13.0867 3.08884 12.9927 3.21142 13.0118 3.34391C13.0304 3.47647 13.155 3.56889 13.2899 3.55022L14.6905 3.35652C11.6518 6.16035 8.11533 8.33326 4.168 9.8215C4.04095 9.86929 3.97743 10.0096 4.026 10.1347ZM6.40187 4.30725C6.50907 4.30725 6.60413 4.23956 6.63707 4.13942L6.99102 3.05915L7.34537 4.13942C7.37829 4.23942 7.47325 4.30734 7.58037 4.30725L8.73374 4.30526L7.79938 4.97052C7.7126 5.03222 7.67627 5.14218 7.70969 5.24236L8.068 6.32102L7.13633 5.65223C7.05 5.59023 6.93247 5.59021 6.84591 5.65223L5.91403 6.32102L6.27275 5.24236C6.30597 5.14218 6.26985 5.03222 6.18307 4.97052L5.24871 4.30526L6.40187 4.30725ZM4.34154 4.25776C4.14921 4.12054 4.24818 3.81876 4.48602 3.81876L6.22313 3.82202L6.75686 2.19541C6.83024 1.97214 7.15256 1.97246 7.22559 2.19541L7.75889 3.82202L9.4958 3.81876C9.73399 3.81854 9.83339 4.12041 9.6407 4.25776L8.23365 5.25982L8.77359 6.88412C8.84787 7.1079 8.586 7.2931 8.39412 7.1557L6.99102 6.14816L5.58791 7.1557C5.39659 7.29275 5.13498 7.10608 5.20864 6.88412L5.74859 5.25982L4.34154 4.25776Z" fill="#F36B21"/>
</g>
</svg>
