<svg width="20" height="20" viewBox="0 0 20 20" fill="none" xmlns="http://www.w3.org/2000/svg">
<mask id="mask0_1567_224" style="mask-type:alpha" maskUnits="userSpaceOnUse" x="0" y="0" width="20" height="20">
<rect width="20" height="20" fill="#D9D9D9"/>
</mask>
<g mask="url(#mask0_1567_224)">
<path d="M4.10568 15.5635H11.1544C11.3694 15.5635 11.5383 15.3946 11.5383 15.1796C11.5383 14.9646 11.3694 14.7957 11.1544 14.7957H4.10568C3.9214 14.7957 3.76783 14.6421 3.76783 14.4579V7.4706H16.4985V9.48232C16.4985 9.69731 16.6674 9.86623 16.8824 9.86623C17.0974 9.86623 17.2663 9.69731 17.2663 9.48232V5.10568C17.2663 4.49141 16.7749 4 16.1606 4H4.10568C3.49141 4 3 4.49141 3 5.10568V14.4579C3 15.0721 3.49141 15.5635 4.10568 15.5635ZM4.10568 4.76783H16.1606C16.3449 4.76783 16.4985 4.9214 16.4985 5.10568V6.70277H3.76783V5.10568C3.76783 4.9214 3.9214 4.76783 4.10568 4.76783ZM5.82562 5.7353C5.82562 5.47424 6.04061 5.2746 6.28632 5.2746C6.54738 5.2746 6.74702 5.48959 6.74702 5.7353C6.74702 5.99636 6.53203 6.196 6.28632 6.196C6.02526 6.21136 5.82562 5.99636 5.82562 5.7353ZM7.34593 5.7353C7.34593 5.47424 7.56092 5.2746 7.80663 5.2746C8.05233 5.2746 8.26733 5.48959 8.26733 5.7353C8.26733 5.99636 8.05233 6.196 7.80663 6.196C7.56092 6.196 7.34593 5.99636 7.34593 5.7353ZM4.28996 5.7353C4.28996 5.47424 4.50495 5.2746 4.75066 5.2746C4.99636 5.2746 5.21136 5.48959 5.21136 5.7353C5.21136 5.99636 4.99636 6.196 4.75066 6.196C4.50495 6.196 4.28996 5.99636 4.28996 5.7353ZM17.6656 15.4407L15.8535 13.644C16.2835 13.0911 16.5446 12.4001 16.5446 11.6476C16.5446 9.86623 15.101 8.40735 13.3043 8.40735C11.5229 8.40735 10.0641 9.85088 10.0641 11.6476C10.0641 13.4443 11.5076 14.8879 13.3043 14.8879C14.0568 14.8879 14.7478 14.6268 15.3007 14.1968L17.0974 15.9935C17.1742 16.0703 17.2663 16.101 17.3738 16.101C17.4813 16.101 17.5734 16.0703 17.6502 15.9935C17.8038 15.84 17.8038 15.5943 17.6656 15.4407ZM10.8626 11.6476C10.8626 10.2809 11.9683 9.17519 13.335 9.17519C14.7018 9.17519 15.8074 10.2809 15.8074 11.6476C15.8074 13.0143 14.6864 14.1047 13.3197 14.1047C11.9683 14.1047 10.8626 12.999 10.8626 11.6476Z" fill="#F36B21"/>
</g>
</svg>
