<svg width="20" height="20" viewBox="0 0 20 20" fill="none" xmlns="http://www.w3.org/2000/svg">
<mask id="mask0_1567_228" style="mask-type:alpha" maskUnits="userSpaceOnUse" x="0" y="0" width="20" height="20">
<rect width="20" height="20" fill="#D9D9D9"/>
</mask>
<g mask="url(#mask0_1567_228)">
<path fill-rule="evenodd" clip-rule="evenodd" d="M5.69255 4.0777H12.8071C12.9353 4.0777 13.0397 3.97136 13.0397 3.84139C13.0397 3.71083 12.9353 3.60449 12.8071 3.60449H5.69255C5.56436 3.60449 5.45996 3.71083 5.45996 3.84139C5.45996 3.97136 5.56437 4.0777 5.69255 4.0777Z" fill="#F36B21"/>
<path fill-rule="evenodd" clip-rule="evenodd" d="M5.23022 3.84158C5.23022 4.15645 4.76562 4.15645 4.76562 3.84158C4.76562 3.52611 5.23022 3.52611 5.23022 3.84158Z" fill="#F36B21"/>
<path fill-rule="evenodd" clip-rule="evenodd" d="M4.53394 3.84158C4.53394 4.15645 4.06934 4.15645 4.06934 3.84158C4.06934 3.52611 4.53394 3.52611 4.53394 3.84158Z" fill="#F36B21"/>
<path fill-rule="evenodd" clip-rule="evenodd" d="M3.83765 3.84158C3.83765 4.15645 3.37305 4.15645 3.37305 3.84158C3.37305 3.52611 3.83765 3.52611 3.83765 3.84158Z" fill="#F36B21"/>
<path fill-rule="evenodd" clip-rule="evenodd" d="M14.2245 9.94345C14.2037 9.95409 14.1839 9.96886 14.1665 9.98658C14.1491 10.0043 14.1352 10.0238 14.1248 10.0451L8.98744 15.2615L8.9799 15.2692C8.95669 15.2952 8.93987 15.3253 8.93001 15.3572L8.40335 16.9848C8.37666 17.0693 8.39813 17.1626 8.46019 17.2253C8.52167 17.2885 8.61331 17.3103 8.69625 17.2826L10.2943 16.7467C10.3256 16.7367 10.3546 16.7196 10.3801 16.6959L10.3836 16.693L10.3876 16.6888L16.1635 10.8237C16.1704 10.8178 16.1774 10.8119 16.1838 10.8048C16.1902 10.7989 16.1954 10.7924 16.2006 10.7859L16.7052 10.2737C17.0985 9.8732 17.0985 9.24757 16.7052 8.84703C16.312 8.4465 15.6977 8.4465 15.3045 8.84703L14.2245 9.94345ZM8.98742 16.6883L9.79423 16.4177L9.53322 16.1519C9.52974 16.1489 9.52684 16.1454 9.52336 16.1424C9.52046 16.1389 9.51698 16.1359 9.51408 16.1324L9.25307 15.8665L8.98742 16.6883ZM10.0152 15.9752L10.2246 16.1885L15.0835 11.2538L14.8672 11.0341L10.0152 15.9752ZM9.4787 15.4288L9.6875 15.6414L14.5389 10.6996L14.3376 10.4946L9.4787 15.4288ZM15.0412 10.5443L15.4112 10.9212L15.6896 10.6382L14.9402 9.88264L14.6659 10.1615L15.0197 10.5224C15.0237 10.5254 15.0272 10.5289 15.0307 10.5331C15.0348 10.5366 15.0383 10.5402 15.0412 10.5443ZM16.0185 10.305L15.2691 9.54886L15.6316 9.18022C15.841 8.96755 16.1681 8.96755 16.3775 9.18022C16.5869 9.3935 16.5869 9.72668 16.3775 9.93994L16.0185 10.305Z" fill="#F36B21"/>
<path fill-rule="evenodd" clip-rule="evenodd" d="M5.48715 13.5142L10.69 8.17604L12.6487 10.138C12.7403 10.2296 12.8871 10.2284 12.9769 10.1351C13.0669 10.0423 13.0657 9.89285 12.974 9.80129L10.8511 7.67461C10.7601 7.58304 10.6133 7.58422 10.5234 7.67638L7.81013 10.46L6.26023 8.85844C6.17438 8.76983 6.03576 8.76451 5.94295 8.84545L3.0788 11.365V5.03913H13.2872V9.96974C13.2872 10.1003 13.3911 10.206 13.5193 10.206C13.6474 10.206 13.7513 10.1003 13.7513 9.96974V3.26104C13.7513 2.90836 13.492 2.64429 13.1457 2.64429H3.22029C2.87402 2.64429 2.61475 2.90836 2.61475 3.26104V13.3703C2.61475 13.723 2.87402 13.987 3.22029 13.987H9.80701C9.93519 13.987 10.039 13.8813 10.039 13.7507C10.039 13.6202 9.93519 13.5144 9.80701 13.5144L5.48715 13.5142ZM6.08225 9.34812L3.07882 11.9895V13.3701C3.07882 13.4522 3.13972 13.5142 3.22034 13.5142H4.83335L7.48354 10.7955L6.08225 9.34812ZM13.2873 4.56587V3.26087C13.2873 3.17875 13.2264 3.11672 13.1457 3.11672H3.22031C3.13968 3.11672 3.07878 3.17875 3.07878 3.26087V4.56587H13.2873Z" fill="#F36B21"/>
<path fill-rule="evenodd" clip-rule="evenodd" d="M7.92755 5.94629C7.41539 5.94629 6.99951 6.36987 6.99951 6.89152C6.99951 7.41316 7.41539 7.83674 7.92755 7.83674C8.43971 7.83674 8.85559 7.41316 8.85559 6.89152C8.85559 6.36987 8.43971 5.94629 7.92755 5.94629ZM7.92755 6.4189C8.18393 6.4189 8.39157 6.63039 8.39157 6.89152C8.39157 7.15264 8.18393 7.36413 7.92755 7.36413C7.67118 7.36413 7.46353 7.15264 7.46353 6.89152C7.46353 6.63039 7.67118 6.4189 7.92755 6.4189Z" fill="#F36B21"/>
</g>
</svg>
