<svg width="26" height="26" viewBox="0 0 26 26" fill="none" xmlns="http://www.w3.org/2000/svg">
<circle cx="13" cy="13" r="12.5" stroke="#676767"/>
<path d="M12.3051 18C11.9905 18.001 11.688 17.8724 11.4647 17.6417L8.62689 14.6914C8.28918 14.3379 8.09926 13.8601 8.09834 13.3622C8.09787 13.0669 7.98484 12.7838 7.78426 12.5752L7.10886 11.8726C7.03938 11.8003 7 11.7026 7 11.6C7 11.4979 7.03938 11.4001 7.10886 11.3279L9.46073 8.8823C9.60573 8.73349 9.83966 8.73349 9.98466 8.8823L10.6601 9.58495C10.9588 9.96783 11.5356 9.85851 11.9918 10.0174L12.3064 9.69043C12.645 9.33645 13.1054 9.13851 13.5853 9.13995C13.8688 9.14043 14.1408 9.0234 14.3404 8.81439L15.0158 8.11269C15.0853 8.04045 15.1794 8 15.2776 8C15.3762 8 15.4703 8.04045 15.5397 8.11269L17.8911 10.5573C17.9606 10.6295 18 10.7278 18 10.8299C18 10.932 17.9606 11.0297 17.8911 11.102L17.2157 11.8037C17.0152 12.0112 16.9026 12.2944 16.9031 12.5892C16.8933 13.1835 16.6302 13.7426 16.1846 14.1154C16.3699 14.3913 16.4398 14.7338 16.3777 15.0637C16.3157 15.394 16.1276 15.684 15.8561 15.8674L12.941 17.8088C12.751 17.934 12.5302 18.0005 12.3051 18ZM7.89494 11.6L8.30816 12.0301C8.64771 12.3826 8.83904 12.8608 8.8395 13.3598C8.8395 13.6545 8.9516 13.9372 9.15126 14.1467L11.9891 17.097C12.1369 17.2492 12.3662 17.2747 12.5422 17.1592L15.4583 15.2173C15.5927 15.1181 15.6682 14.9539 15.658 14.7829C15.6483 14.612 15.5547 14.4588 15.4097 14.3769L13.2709 12.1534L12.6502 12.7987C12.1809 13.2856 11.4212 13.2856 10.952 12.7987L10.3966 12.2213C10.253 12.0701 10.253 11.8274 10.3966 11.6766L11.3601 10.6749C10.8913 10.6657 10.4447 10.463 10.1195 10.1114L9.723 9.69964L7.89494 11.6ZM13.553 11.3563L15.6713 13.5591C15.9669 13.3289 16.1475 12.973 16.1619 12.5892C16.161 12.0902 16.3514 11.611 16.6919 11.2595L17.1051 10.8299L15.2776 8.93C14.8287 9.44242 14.2965 9.93944 13.5853 9.91054C13.0582 9.87056 12.6639 10.4201 12.3272 10.7591L11.1821 11.9487L11.4758 12.254C11.6555 12.4404 11.9464 12.4404 12.1262 12.2535L12.985 11.3606C13.0554 11.274 13.1587 11.2234 13.2681 11.2224C13.3769 11.2219 13.4812 11.2706 13.553 11.3563Z" fill="white"/>
</svg>
