<svg width="26" height="26" viewBox="0 0 26 26" fill="none" xmlns="http://www.w3.org/2000/svg">
<circle cx="13" cy="13" r="12.5" stroke="#676767"/>
<path d="M11.8457 9.03223C12.0989 9.03223 12.3272 9.14811 12.4912 9.33301L12.5498 9.40527C12.6791 9.58139 12.7567 9.80616 12.7568 10.0498V12.7803H15.1777C15.4309 12.7803 15.6593 12.8962 15.8232 13.0811L15.8818 13.1533C16.011 13.3294 16.0889 13.555 16.0889 13.7988V15.4365C16.0889 15.8787 15.9272 16.2811 15.667 16.5732L15.668 16.5742C15.4077 16.867 15.0466 17.0498 14.6484 17.0498H10.3896C10.0411 17.0498 9.72112 16.91 9.47266 16.6787L9.37109 16.5742C9.11088 16.2815 8.9502 15.8785 8.9502 15.4365V10.6455C8.9502 10.2032 9.11086 9.80025 9.37109 9.50781L9.47266 9.40332C9.72146 9.17199 10.0412 9.03224 10.3896 9.03223H11.8457ZM12.7568 16.5283H14.6484C14.9112 16.5283 15.1527 16.4073 15.3281 16.21L15.3906 16.1318C15.5293 15.9429 15.6133 15.7002 15.6133 15.4365V13.7988C15.6133 13.6951 15.5849 13.599 15.5371 13.5195L15.4834 13.4463C15.4038 13.3567 15.2954 13.3028 15.1777 13.3027H15.1221V13.3018H12.7568V16.5283ZM9.4248 15.4365C9.4248 15.7384 9.53544 16.0125 9.71094 16.21L9.7793 16.2803C9.94664 16.4358 10.1598 16.5283 10.3896 16.5283H12.2812V13.3018H9.4248V15.4365ZM10.3896 9.55371C10.1598 9.55381 9.94726 9.64647 9.78027 9.80176L9.71094 9.87207C9.53513 10.0699 9.42578 10.344 9.42578 10.6455V12.7803H12.2822V10.0498C12.2821 9.94617 12.2538 9.84988 12.2061 9.77051L12.1514 9.69727C12.0717 9.6078 11.9633 9.55371 11.8457 9.55371H10.3896ZM15.6992 7.9502C16.073 7.9502 16.4113 8.12236 16.6553 8.39648L16.7422 8.50391C16.9344 8.76571 17.0497 9.10012 17.0498 9.46289V10.9248C17.0497 11.1686 16.9729 11.3935 16.8438 11.5693L16.7852 11.6416C16.6208 11.8265 16.3916 11.9424 16.1387 11.9424H14.4004C14.1789 11.9423 13.9764 11.854 13.8193 11.708L13.7549 11.6416C13.5908 11.4573 13.4894 11.2032 13.4893 10.9248V8.96875C13.4893 8.69017 13.5906 8.43541 13.7549 8.25098L13.8193 8.18555C13.9764 8.03956 14.179 7.95024 14.4004 7.9502H15.6992ZM14.4004 8.47168C14.3121 8.47172 14.2288 8.50156 14.1592 8.55469L14.0947 8.61523C14.015 8.70497 13.9648 8.83046 13.9648 8.96875V10.9248C13.9649 11.0629 14.015 11.1877 14.0947 11.2773L14.1592 11.3379C14.2288 11.3909 14.3121 11.4209 14.4004 11.4209H16.1396C16.2571 11.4207 16.3653 11.367 16.4453 11.2773L16.499 11.2041C16.5469 11.1247 16.5751 11.0284 16.5752 10.9248V9.46289C16.5751 9.22305 16.4991 9.00275 16.373 8.83105L16.3154 8.76074C16.156 8.58151 15.9376 8.47168 15.6992 8.47168H14.4004Z" fill="white" stroke="white" stroke-width="0.1"/>
</svg>
