<svg width="26" height="26" viewBox="0 0 26 26" fill="none" xmlns="http://www.w3.org/2000/svg">
<circle cx="13" cy="13" r="12.5" stroke="white"/>
<path d="M16.4906 8H10.3079C9.96101 8 9.62835 8.13779 9.38307 8.38307C9.13779 8.62835 9 8.96101 9 9.30788V16.7343C9 17.0812 9.13779 17.4138 9.38307 17.6591C9.62835 17.9044 9.96101 18.0422 10.3079 18.0422H16.4906C16.8375 18.0422 17.1701 17.9044 17.4154 17.6591C17.6607 17.4138 17.7985 17.0812 17.7985 16.7343V9.30788C17.7985 8.96101 17.6607 8.62835 17.4154 8.38307C17.1701 8.13779 16.8375 8 16.4906 8ZM17.0851 16.7343C17.0851 16.8919 17.0225 17.0432 16.911 17.1546C16.7995 17.2661 16.6483 17.3288 16.4906 17.3288H10.3079C10.1502 17.3288 9.999 17.2661 9.88751 17.1546C9.77602 17.0432 9.71339 16.8919 9.71339 16.7343V9.30788C9.71339 9.15021 9.77602 8.999 9.88751 8.88751C9.999 8.77602 10.1502 8.71339 10.3079 8.71339H16.4906C16.6483 8.71339 16.7995 8.77602 16.911 8.88751C17.0225 8.999 17.0851 9.15021 17.0851 9.30788V16.7343Z" fill="white"/>
<path d="M11.3005 12.7236H10.7119C10.6173 12.7236 10.5266 12.7612 10.4597 12.8281C10.3928 12.895 10.3552 12.9857 10.3552 13.0803C10.3552 13.1749 10.3928 13.2657 10.4597 13.3325C10.5266 13.3994 10.6173 13.437 10.7119 13.437H11.3005C11.3951 13.437 11.4858 13.3994 11.5527 13.3325C11.6196 13.2657 11.6572 13.1749 11.6572 13.0803C11.6572 12.9857 11.6196 12.895 11.5527 12.8281C11.4858 12.7612 11.3951 12.7236 11.3005 12.7236Z" fill="white"/>
<path d="M16.0862 12.7236H12.6013C12.5067 12.7236 12.416 12.7612 12.3491 12.8281C12.2822 12.895 12.2446 12.9857 12.2446 13.0803C12.2446 13.1749 12.2822 13.2657 12.3491 13.3325C12.416 13.3994 12.5067 13.437 12.6013 13.437H16.0862C16.1808 13.437 16.2716 13.3994 16.3385 13.3325C16.4054 13.2657 16.4429 13.1749 16.4429 13.0803C16.4429 12.9857 16.4054 12.895 16.3385 12.8281C16.2716 12.7612 16.1808 12.7236 16.0862 12.7236Z" fill="white"/>
<path d="M11.3005 10.5835H10.7119C10.6173 10.5835 10.5266 10.6211 10.4597 10.688C10.3928 10.7549 10.3552 10.8456 10.3552 10.9402C10.3552 11.0348 10.3928 11.1255 10.4597 11.1924C10.5266 11.2593 10.6173 11.2969 10.7119 11.2969H11.3005C11.3951 11.2969 11.4858 11.2593 11.5527 11.1924C11.6196 11.1255 11.6572 11.0348 11.6572 10.9402C11.6572 10.8456 11.6196 10.7549 11.5527 10.688C11.4858 10.6211 11.3951 10.5835 11.3005 10.5835Z" fill="white"/>
<path d="M16.0862 10.5835H12.6013C12.5067 10.5835 12.416 10.6211 12.3491 10.688C12.2822 10.7549 12.2446 10.8456 12.2446 10.9402C12.2446 11.0348 12.2822 11.1255 12.3491 11.1924C12.416 11.2593 12.5067 11.2969 12.6013 11.2969H16.0862C16.1808 11.2969 16.2716 11.2593 16.3385 11.1924C16.4054 11.1255 16.4429 11.0348 16.4429 10.9402C16.4429 10.8456 16.4054 10.7549 16.3385 10.688C16.2716 10.6211 16.1808 10.5835 16.0862 10.5835Z" fill="white"/>
<path d="M11.3005 14.8638H10.7119C10.6173 14.8638 10.5266 14.9013 10.4597 14.9682C10.3928 15.0351 10.3552 15.1259 10.3552 15.2205C10.3552 15.3151 10.3928 15.4058 10.4597 15.4727C10.5266 15.5396 10.6173 15.5772 10.7119 15.5772H11.3005C11.3951 15.5772 11.4858 15.5396 11.5527 15.4727C11.6196 15.4058 11.6572 15.3151 11.6572 15.2205C11.6572 15.1259 11.6196 15.0351 11.5527 14.9682C11.4858 14.9013 11.3951 14.8638 11.3005 14.8638Z" fill="white"/>
<path d="M16.0862 14.8638H12.6013C12.5067 14.8638 12.416 14.9013 12.3491 14.9682C12.2822 15.0351 12.2446 15.1259 12.2446 15.2205C12.2446 15.3151 12.2822 15.4058 12.3491 15.4727C12.416 15.5396 12.5067 15.5772 12.6013 15.5772H16.0862C16.1808 15.5772 16.2716 15.5396 16.3385 15.4727C16.4054 15.4058 16.4429 15.3151 16.4429 15.2205C16.4429 15.1259 16.4054 15.0351 16.3385 14.9682C16.2716 14.9013 16.1808 14.8638 16.0862 14.8638Z" fill="white"/>
</svg>
