<svg width="26" height="26" viewBox="0 0 26 26" fill="none" xmlns="http://www.w3.org/2000/svg">
<circle cx="13" cy="13" r="12.5" stroke="#676767"/>
<path fill-rule="evenodd" clip-rule="evenodd" d="M7 8.52778C7 7.68401 7.68401 7 8.52778 7H17.3889C18.2326 7 18.9166 7.68401 18.9166 8.52778V10.9977H18.3055V8.52778C18.3055 8.02151 17.8951 7.61111 17.3889 7.61111H8.52778C8.02151 7.61111 7.61111 8.02151 7.61111 8.52778V14.0278C7.61111 14.534 8.02151 14.9444 8.52778 14.9444H11.8889V15.5555H8.52778C7.68401 15.5555 7 14.8715 7 14.0278V8.52778Z" fill="white"/>
<path fill-rule="evenodd" clip-rule="evenodd" d="M18.6111 10.0554H7.61108V9.44434H18.6111V10.0554Z" fill="white"/>
<path fill-rule="evenodd" clip-rule="evenodd" d="M9.75005 11.5833C9.41255 11.5833 9.13894 11.8569 9.13894 12.1944C9.13894 12.5319 9.41255 12.8055 9.75005 12.8055C10.0876 12.8055 10.3612 12.5319 10.3612 12.1944C10.3612 11.8569 10.0876 11.5833 9.75005 11.5833ZM8.52783 12.1944C8.52783 11.5194 9.07504 10.9722 9.75005 10.9722C10.4251 10.9722 10.9723 11.5194 10.9723 12.1944C10.9723 12.8694 10.4251 13.4166 9.75005 13.4166C9.07504 13.4166 8.52783 12.8694 8.52783 12.1944Z" fill="white"/>
<path fill-rule="evenodd" clip-rule="evenodd" d="M11.5834 11.5833C11.2459 11.5833 10.9723 11.8569 10.9723 12.1944C10.9723 12.5319 11.2459 12.8055 11.5834 12.8055C11.9209 12.8055 12.1945 12.5319 12.1945 12.1944C12.1945 11.8569 11.9209 11.5833 11.5834 11.5833ZM10.3612 12.1944C10.3612 11.5194 10.9084 10.9722 11.5834 10.9722C12.2585 10.9722 12.8056 11.5194 12.8056 12.1944C12.8056 12.8694 12.2585 13.4166 11.5834 13.4166C10.9084 13.4166 10.3612 12.8694 10.3612 12.1944Z" fill="white"/>
<path fill-rule="evenodd" clip-rule="evenodd" d="M16.4723 11.8889C14.9535 11.8889 13.7223 13.1201 13.7223 14.6389C13.7223 16.1577 14.9535 17.3889 16.4723 17.3889C17.9911 17.3889 19.2223 16.1577 19.2223 14.6389C19.2223 13.1201 17.9911 11.8889 16.4723 11.8889ZM13.1112 14.6389C13.1112 12.7826 14.616 11.2778 16.4723 11.2778C18.3286 11.2778 19.8334 12.7826 19.8334 14.6389C19.8334 16.4952 18.3286 18 16.4723 18C14.616 18 13.1112 16.4952 13.1112 14.6389Z" fill="white"/>
<path fill-rule="evenodd" clip-rule="evenodd" d="M17.9292 13.6129L16.4014 15.4462C16.3465 15.5122 16.2663 15.552 16.1806 15.5559C16.0948 15.5597 16.0113 15.5274 15.9506 15.4667L15.0339 14.55L15.4661 14.1179L16.1462 14.798L17.4597 13.2217L17.9292 13.6129Z" fill="white"/>
</svg>
