<svg width="40" height="40" viewBox="0 0 40 40" fill="none" xmlns="http://www.w3.org/2000/svg">
<path d="M40 20C40 31.0459 31.0459 40 20 40C8.95411 40 0 31.0459 0 20C0.00100664 8.9541 8.95512 0 20 0C31.0459 0 40 8.9541 40 20Z" fill="black"/>
<path d="M23.9641 25.1528V15.2434C23.9641 15.2434 25.0815 17.1057 29.1201 17.2194C29.3355 17.2255 29.5137 17.0483 29.5137 16.8329V14.0324C29.5137 13.824 29.3476 13.6589 29.1393 13.6469C26.0066 13.4697 24.5188 11.0668 24.3728 8.86328C24.3597 8.65893 24.1805 8.50391 23.9762 8.50391H20.7821C20.5697 8.50391 20.3965 8.67604 20.3965 8.88945V24.6424C20.3965 26.3537 19.0889 27.8425 17.3796 27.9231C15.4257 28.0157 13.8373 26.3386 14.0789 24.3565C14.25 22.9563 15.3734 21.8097 16.7706 21.6154C17.0484 21.5772 17.3192 21.5742 17.582 21.6034C17.8145 21.6295 18.0188 21.4564 18.0188 21.2229V18.4153C18.0188 18.216 17.8668 18.0429 17.6675 18.0308C17.2669 18.0046 16.8562 18.0137 16.4394 18.061C13.3581 18.4103 10.8717 20.9037 10.5304 23.9861C10.0805 28.0519 13.2514 31.4936 17.2266 31.4936C20.9482 31.4936 23.9651 28.4767 23.9651 24.7552" fill="white"/>
</svg>
