<svg width="20" height="20" viewBox="0 0 20 20" fill="none" xmlns="http://www.w3.org/2000/svg">
<mask id="mask0_1567_225" style="mask-type:alpha" maskUnits="userSpaceOnUse" x="0" y="0" width="20" height="20">
<rect width="20" height="20" fill="#D9D9D9"/>
</mask>
<g mask="url(#mask0_1567_225)">
<path d="M4.44179 15.5485H11.3406C12.0621 15.5485 12.6558 14.9998 12.7589 14.2943L14.7956 15.5051C14.8025 15.5093 14.8094 15.5121 14.8204 15.5163C14.8272 15.5205 14.8382 15.5233 14.8451 15.5275C14.8808 15.5415 14.9124 15.5485 14.9509 15.5485H15.9363C16.284 15.5485 16.5657 15.2616 16.5657 14.9074V9.0411C16.5657 8.68696 16.284 8.4 15.9363 8.4H14.9509C14.9152 8.4 14.8808 8.407 14.8492 8.42099C14.8382 8.42519 14.8313 8.42799 14.8245 8.43219C14.8176 8.43639 14.8066 8.43919 14.7997 8.44339L12.763 9.65417C12.6613 8.94449 12.0662 8.4 11.3448 8.4H10.9778C11.3186 8.03747 11.5303 7.54755 11.5303 7.01005C11.5303 5.90286 10.6439 5 9.55677 5C8.85313 5 8.23744 5.37654 7.88974 5.94203C7.54204 5.37654 6.92223 5 6.21859 5C5.13154 5 4.24509 5.90283 4.24509 7.01005C4.24509 7.55174 4.45673 8.03887 4.79756 8.4H4.43888C3.64316 8.4 3 9.05926 3 9.86552V14.0803C3.00275 14.8893 3.64604 15.5485 4.44179 15.5485ZM15.9569 9.04113L15.9363 14.9286H15.2532V9.02716L15.9569 9.04113ZM14.6444 14.7003L12.7795 13.5889V10.3597L14.6444 9.24829V14.7003ZM9.56095 5.6201C10.3141 5.6201 10.9256 6.243 10.9256 7.01005C10.9256 7.77711 10.3141 8.4 9.56095 8.4C8.80784 8.4 8.19627 7.77711 8.19627 7.01005C8.1949 6.243 8.80784 5.6201 9.56095 5.6201ZM8.13854 8.4H7.63829C7.73311 8.29922 7.8142 8.19284 7.88841 8.07386C7.96262 8.19284 8.04783 8.30341 8.13854 8.4ZM4.85673 7.01005C4.85673 6.243 5.46829 5.6201 6.2214 5.6201C6.97451 5.6201 7.58608 6.243 7.58608 7.01005C7.58608 7.77711 6.97451 8.4 6.2214 8.4C5.46829 8.4 4.85673 7.77711 4.85673 7.01005ZM3.60748 9.86975C3.60748 9.40083 3.97992 9.0201 4.44168 9.0201H11.3405C11.8009 9.0201 12.1747 9.39943 12.1747 9.86975V14.0831C12.1747 14.552 11.8023 14.9327 11.3405 14.9327H4.44168C3.98129 14.9327 3.60748 14.5534 3.60748 14.0831V9.86975Z" fill="#F36B21"/>
<path d="M8.70233 11.489H10.8806C11.2956 11.489 11.6296 11.1447 11.6296 10.7262V10.2461C11.6296 9.82333 11.2915 9.479 10.8806 9.479H8.70233C8.28728 9.479 7.94922 9.82334 7.94922 10.2461V10.7262C7.95334 11.1447 8.2873 11.489 8.70233 11.489ZM8.55802 10.246C8.55802 10.1634 8.62124 10.099 8.70233 10.099H10.8806C10.9617 10.099 11.0249 10.1634 11.0249 10.246V10.7261C11.0249 10.8087 10.9617 10.8731 10.8806 10.8731H8.70233C8.62124 10.8731 8.55802 10.8087 8.55802 10.7261V10.246Z" fill="#F36B21"/>
<path d="M4.40977 14.3376H6.40526C6.5743 14.3376 6.70761 14.1976 6.70761 14.0296C6.70761 13.8617 6.57018 13.7217 6.40526 13.7217H4.40977C4.24073 13.7217 4.10742 13.8617 4.10742 14.0296C4.10742 14.1976 4.24073 14.3376 4.40977 14.3376Z" fill="#F36B21"/>
</g>
</svg>
