<svg width="20" height="20" viewBox="0 0 20 20" fill="none" xmlns="http://www.w3.org/2000/svg">
<mask id="mask0_1567_249" style="mask-type:alpha" maskUnits="userSpaceOnUse" x="0" y="0" width="20" height="20">
<rect width="20" height="20" fill="#F88787"/>
</mask>
<g mask="url(#mask0_1567_249)">
<path fill-rule="evenodd" clip-rule="evenodd" d="M5.6995 11.7952H4.99664V12.4981H5.6995V11.7952ZM15.4305 11.7952H14.7277V12.4981H15.4305V11.7952ZM10.9615 6.53321H9.46556V8.02915H10.9615V6.53321ZM5.39306 7.03342C5.17225 6.8126 4.7932 6.96946 4.7932 7.28184C4.7932 7.59355 5.17223 7.75043 5.39306 7.53027C5.53107 7.39225 5.53107 7.17009 5.39306 7.03409V7.03342ZM15.5307 7.03342C15.3098 6.8126 14.9308 6.96946 14.9308 7.28184C14.9308 7.59355 15.3098 7.75043 15.5307 7.53027C15.6687 7.39225 15.6687 7.17009 15.5307 7.03409V7.03342ZM15.2822 6.45915C16.0114 6.45915 16.3783 7.34513 15.8632 7.86016C15.4223 8.30114 14.6723 8.10657 14.4946 7.51345H12.3522C13.8758 8.21832 14.9739 9.64231 15.2458 11.3227H15.6632C15.7925 11.3227 15.8975 11.4277 15.8975 11.557V12.7291C15.8975 12.8584 15.7925 12.9634 15.6632 12.9634H14.4911C14.3619 12.9634 14.2568 12.8584 14.2568 12.7291V11.557C14.2568 11.4277 14.3619 11.3227 14.4911 11.3227H14.7705C14.4568 9.5663 13.1467 8.14097 11.4319 7.6758V8.26355C11.4319 8.39281 11.3269 8.49784 11.1976 8.49784H9.23113C9.10187 8.49784 8.99684 8.39281 8.99684 8.26355V7.6758C7.2821 8.14302 5.97193 9.5663 5.65825 11.3227H5.93765C6.06691 11.3227 6.17194 11.4277 6.17194 11.557V12.7291C6.17194 12.8584 6.06692 12.9634 5.93765 12.9634H4.76554C4.63627 12.9634 4.53124 12.8584 4.53124 12.7291V11.557C4.53124 11.4277 4.63627 11.3227 4.76554 11.3227H5.18295C5.45493 9.64231 6.55299 8.21836 8.07653 7.51345H5.93422C5.75851 8.10455 5.00851 8.30114 4.56552 7.86016C4.04848 7.34311 4.41741 6.45915 5.14653 6.45915C5.51345 6.45915 5.83055 6.7022 5.93422 7.04486H8.99687V6.2969C8.99687 6.16764 9.1019 6.06261 9.23117 6.06261H11.1977C11.3269 6.06261 11.432 6.16763 11.432 6.2969V7.04486H14.4946C14.5963 6.70218 14.9133 6.45915 15.2822 6.45915ZM10.513 12.2208C10.2457 11.9535 9.78723 12.1434 9.78723 12.5204C9.78723 12.8981 10.2457 13.0873 10.513 12.82C10.6786 12.6544 10.6786 12.3858 10.513 12.2188V12.2208ZM9.07562 15.8644H11.3505C11.4265 14.8559 12.1604 14.1222 13.0686 13.5843L10.447 9.15642V11.6576C11.1054 11.8366 11.333 12.6661 10.8449 13.1535C10.4948 13.5036 9.92992 13.5036 9.57985 13.1535C9.09242 12.6661 9.3193 11.8353 9.97773 11.6576V9.15642L7.35612 13.5843C8.26432 14.1235 8.99882 14.858 9.07424 15.8644H9.07562ZM8.32428 17.5294H12.1025V16.335H8.32428V17.5294ZM17.4623 5.59071V15.8698C17.4623 16.2091 17.1829 16.4885 16.8436 16.4885H12.5726V16.1007C12.5726 15.9715 12.4675 15.8664 12.3383 15.8664H11.8212C11.9074 14.9805 12.6587 14.3375 13.5036 13.8756C13.6194 13.8117 13.6605 13.6689 13.5932 13.5518L10.7791 8.79874C10.736 8.72469 10.6565 8.68295 10.5771 8.68295H9.84661C9.75505 8.68295 9.67628 8.73479 9.63655 8.81019L6.83053 13.5519C6.76186 13.669 6.80293 13.8171 6.93219 13.8831C7.5132 14.2022 7.94407 14.5503 8.22481 14.926C8.44562 15.2208 8.57153 15.5346 8.60384 15.8671H8.08679C7.95753 15.8671 7.8525 15.9722 7.8525 16.1014V16.4892L3.58478 16.4885C3.24546 16.4885 2.96608 16.2092 2.96608 15.8698V5.59075H17.4643L17.4623 5.59071ZM17.9329 5.35441V15.8698C17.9329 16.4697 17.4434 16.9591 16.8436 16.9591H12.5726V17.7656C12.5726 17.8949 12.4675 17.9999 12.3383 17.9999H8.09019C7.96093 17.9999 7.8559 17.8949 7.8559 17.7656V16.9591H3.58491C2.98504 16.9591 2.49561 16.4697 2.49561 15.8698V3.57783C2.49561 2.97796 2.98504 2.48853 3.58491 2.48853H16.8438C17.4436 2.48853 17.9331 2.97796 17.9331 3.57783L17.9329 5.35441ZM2.96464 5.12011H17.4629V3.57772C17.4629 3.2384 17.1835 2.95902 16.8442 2.95902H3.58461C3.24529 2.95902 2.96591 3.23842 2.96591 3.57772V5.12011H2.96464ZM4.29497 4.27384H4.64505C4.77431 4.27384 4.87934 4.16882 4.87934 4.03955C4.87934 3.91029 4.77431 3.80526 4.64505 3.80526H4.29497C4.16571 3.80526 4.06068 3.91029 4.06068 4.03955C4.06068 4.16882 4.1657 4.27384 4.29497 4.27384ZM6.21167 4.27384H6.56175C6.69101 4.27384 6.79604 4.16882 6.79604 4.03955C6.79604 3.91029 6.69101 3.80526 6.56175 3.80526H6.21167C6.08241 3.80526 5.97738 3.91029 5.97738 4.03955C5.97738 4.16882 6.0824 4.27384 6.21167 4.27384ZM8.1263 4.27384H8.47638C8.60564 4.27384 8.71067 4.16882 8.71067 4.03955C8.71067 3.91029 8.60564 3.80526 8.47638 3.80526H8.1263C7.99704 3.80526 7.89201 3.91029 7.89201 4.03955C7.89201 4.16882 7.99704 4.27384 8.1263 4.27384Z" fill="#F36B21"/>
</g>
</svg>
