<svg width="40" height="40" viewBox="0 0 40 40" fill="none" xmlns="http://www.w3.org/2000/svg">
<path d="M40 20C40 31.0459 31.0459 40 20 40C8.95409 40 0 31.0459 0 20C0 8.9541 8.95409 0 20 0C31.0459 0 40 8.9541 40 20Z" fill="black"/>
<path d="M28.62 11.5234H11.3822C9.67897 11.5234 8.29785 12.9046 8.29785 14.6068V25.3879C8.29785 27.0912 9.67897 28.4713 11.3822 28.4713H28.62C30.3222 28.4713 31.7033 27.0912 31.7033 25.3879V14.6068C31.7033 12.9046 30.3222 11.5234 28.62 11.5234ZM22.7694 20.7423L17.9757 23.1381C17.4221 23.4149 16.7718 23.0133 16.7718 22.3952V17.6036C16.7718 16.9855 17.4231 16.5838 17.9757 16.8597L22.7694 19.2555C23.3814 19.5615 23.3814 20.4363 22.7694 20.7423Z" fill="white"/>
</svg>
